<?xml version="1.0" encoding="UTF-8"?>
<svg id="Layer_1" data-name="Layer 1" xmlns="http://www.w3.org/2000/svg" xmlns:xlink="http://www.w3.org/1999/xlink" viewBox="0 0 1286.863 1721.345">
  <defs>
    <style>
      .cls-1 {
        fill: none;
        stroke: url(#Orange_Yellow);
        stroke-miterlimit: 0;
      }

      .cls-2 {
        fill: hsl(180, 1%, 65%);
      }

      .cls-2 {
        stroke-width: 0px;
      }

      .cls-3 {
        fill: hsl(240, 1%, 86%);
      }
    </style>
    
  </defs>
  <g>
    <path class="cls-3" d="M1278.979,982.217v207.333c0,2.093-1.001,5.164-2.252,6.847l-132.99,180.376c-11.397,15.469-20.724,12.398-20.724-6.825v-356.293c0-25.592,20.929-46.544,46.521-46.544h94.362c8.303,0,15.082,6.802,15.082,15.105Z"/>
    <path class="cls-2" d="M538.118,824.431l740.862,896.418h-354.313L318.159,947.73c-22.203-28.14-37.399-52.209-45.52-72.182h-5.551l6.097,364.732c.364,21.543-17.016,39.196-38.537,39.196H39.03c-21.27,0-38.537-17.266-38.537-38.559V.24h266.594v810.86h5.551c10.328-20.724,25.865-44.792,46.635-72.182L902.463.24h324.33l-688.676,824.191Z"/>
  </g>
  <g>
    <path class="cls-2" d="M139.29,1443.265c76.65,0,138.78,62.14,138.78,138.79s-62.13,138.79-138.78,138.79S.5,1658.705.5,1582.055s62.13-138.79,138.79-138.79Z"/>
    <path class="cls-1" d="M278.07,1582.055c0,76.65-62.13,138.79-138.78,138.79S.5,1658.705.5,1582.055s62.13-138.79,138.79-138.79,138.78,62.14,138.78,138.79Z"/>
  </g>
  <circle class="cls-3" cx="1200.99" cy="603.815" r="85.62"/>
</svg>