<?xml version="1.0" encoding="UTF-8"?>
<svg id="katman_1" data-name="katman 1" xmlns="http://www.w3.org/2000/svg" version="1.1" viewBox="0 0 675 187.9">
  <defs>
    <style>
      .cls-1 {
        fill: currentColor;
        stroke-width: 0px;
      }
    </style>
  </defs>
  <path class="cls-1" d="M61.8,139.6c31,0,49.5-18.1,49.5-39.2s-10.1-27.3-26.7-33.1c9.3-5.6,17.4-15.9,17.4-28.2,0-20-16.6-32.3-45.8-32.3s-15.5,1.1-27.3,1.1-19.6-.9-24.5-.9S0,8.6,0,11.1s1.1,3.7,5,4.5c10.1,1.5,12.5,3.5,12.5,8.6.2,15.9.4,27.8.4,48.8s0,33.3-.4,49.1c-.2,5.4-2.1,6.9-12.1,7.9-3.9.6-5,2.4-5,4.5s1.5,4.1,4.5,4.1c7.3,0,14.2-.4,24.1-.4s17.9,1.5,32.9,1.5h-.1ZM40.2,24.1c0-3.7.9-5.2,3.7-6.4,2.2-.8,5.6-1.1,10.8-1.1,15.5,0,25,8.4,25,24.9s-3,16.8-7.8,22.6c-9.5-1.7-20.4-2.2-32.1-1.7,0-14.8,0-25.4.4-38.3h0ZM47.8,128.2c-5.6-1.3-7.5-3.2-7.7-9.9-.4-14.2-.4-25.2-.4-45.4v-.4c31.8-.8,48.4,6.3,48.4,29.5s-9.7,27.3-29.3,27.3-8.2-.4-11-1.1h0ZM161.8,140c16.3,0,27.5-8,34.2-16.1,3-3.6,1.1-6.7-1.9-6.7s-1.5.4-2.2.8c-7.8,4.9-14,7.5-22.4,7.5-18.5,0-29.5-16.2-29.5-34.8v-.4c18.3-2.6,36.2-6.2,54.8-10.5,2.4-.6,4.1-2.4,3.5-5.2-3-13.5-15.3-28.2-36.6-28.2s-40.9,19.8-40.9,48.4,17.4,45.2,41.1,45.2h-.1ZM160.5,55.9c12,0,17.4,10.8,17.4,15.1s-.8,2.6-2.4,3c-10.1,2.6-22.2,5-34.9,7.3,2.2-17,10.6-25.4,20-25.4h-.1ZM205.9,138.5c6,0,12.3-.6,19.6-.6s15.7.6,21.7.6,3.9-1.7,3.9-3.6-1.1-3.7-4.9-4.3c-9.5-1.1-10.5-2.1-10.6-6-.4-10.3-.4-19.4-.4-31.4v-15.7c9.7-12.9,14.2-15.5,19.1-15.5s10.7,7.3,13.1,7.3,2.1-.4,3-2.2c1.9-3.7,3.7-7.5,5.6-11.4,1.1-2.4.6-3.7-1.7-5.2-4.5-3-9.1-5-13.8-5-8.2,0-15.7,6.9-25,22.2,0-6.2.2-12.9.4-20.4,0-2.4-1.5-3-3.6-2.4-9.7,2.6-18.9,4.1-26.7,4.7-3.2.4-4.3,1.7-4.3,3.7s1.1,3.5,4.7,4.1c8.2,1.5,9.2,2.4,9.4,6.5.4,9.3.4,19.2.4,29.3s0,21.1-.4,31.4c-.2,3.9-.8,4.9-9,6-3.4.8-4.5,2.2-4.5,4.3s1.3,3.6,4.1,3.6h0ZM275.2,138.5c6.2,0,12.3-.6,19.8-.6s13.8.6,20,.6,4.1-1.7,4.1-3.6-1.1-3.6-4.5-4.3c-8.4-1.3-9.3-1.9-9.3-5.8-.2-6-.2-12-.2-17.8,4.1-2.6,8.2-5.4,12.1-8.2,7.8,11.8,15.9,23.9,23.7,35.1,2.4,3.6,3.7,4.3,7.7,4.3s12.5-.2,20.5,0c2.8,0,4.3-1.7,4.3-3.7s-.8-3.6-4.7-3.9c-5.2-.6-8-3.2-12.5-9-7.8-10.7-16.1-22.8-23.7-34.6,0-.2.2-.2.4-.4,14.4-12.5,23.9-22,31-31.4.9-1.3,1.5-2.4,1.5-3.5,0-2.2-1.5-3.7-4.5-3.5-8.8.8-16.8.8-26.7.2-3.9-.2-5,1.7-5,3.5s1.3,3.5,3.9,4.1l3.7.9c6.2,1.5,6.2,6.5-1.5,14.6-8.2,8.8-18.9,17.2-30.5,24.5v-23.2c0-15.5,0-32.5.6-70.2,0-2.4-1.5-3-3.5-2.4-9.7,2.4-19,3.9-26.7,4.7-3.2.2-4.5,1.7-4.5,3.6s1.3,3.6,4.9,4.1c8.2,1.5,9.1,2.4,9.3,6.7.4,18.9.4,36.6.4,53.6s0,33.8-.4,51.9c-.2,3.9-.9,4.5-9.3,5.8-3.4.8-4.5,2.2-4.5,4.3s1.3,3.6,4.1,3.6h0ZM410.1,140c16.3,0,27.5-8,34.2-16.1,3-3.6,1.1-6.7-1.9-6.7s-1.5.4-2.2.8c-7.9,4.9-14,7.5-22.4,7.5-18.5,0-29.5-16.2-29.5-34.8v-.4c18.3-2.6,36.2-6.2,54.8-10.5,2.4-.6,4.1-2.4,3.5-5.2-3-13.5-15.3-28.2-36.6-28.2s-40.9,19.8-40.9,48.4,17.4,45.2,41.1,45.2h-.1ZM408.8,55.9c12,0,17.4,10.8,17.4,15.1s-.8,2.6-2.4,3c-10.1,2.6-22.2,5-34.9,7.3,2.2-17,10.6-25.4,20-25.4h-.1ZM451,138.5c6.2,0,12.7-.6,20.2-.6s14.4.6,20.5.6,4.1-1.7,4.1-3.6-1.3-3.9-4.5-4.3c-8.4-.9-9.9-1.9-9.9-5.8-.4-18.1-.4-35.1-.4-51.9s0-32.5.6-70.2c0-2.4-1.5-3-3.5-2.4-9.7,2.4-19,3.9-26.7,4.7-3.2.2-4.5,1.7-4.5,3.6s1.3,3.6,4.9,4.1c8.2,1.5,9.1,2.4,9.3,6.7.4,18.9.4,36.6.4,53.6s0,33.8-.4,51.9c-.2,3.9-1.3,4.7-9.7,5.8-3.4.4-4.5,2.2-4.5,4.3s1.3,3.6,4.1,3.6h0ZM538.2,140c16.3,0,27.5-8,34.2-16.1,3-3.6,1.1-6.7-1.9-6.7s-1.5.4-2.2.8c-7.8,4.9-14,7.5-22.4,7.5-18.5,0-29.5-16.2-29.5-34.8v-.4c18.3-2.6,36.2-6.2,54.7-10.5,2.4-.6,4.1-2.4,3.5-5.2-3-13.5-15.3-28.2-36.6-28.2s-40.9,19.8-40.9,48.4,17.4,45.2,41.1,45.2h0ZM536.9,55.9c12,0,17.4,10.8,17.4,15.1s-.8,2.6-2.4,3c-10.1,2.6-22.2,5-34.9,7.3,2.2-17,10.7-25.4,20-25.4h0ZM595.2,183.5c9.3,0,18.1-6.9,35.7-43.7,12-26.2,20.9-49.3,30.3-73.1,3-7.7,4.5-9.2,9.2-10.5,3.4-.9,4.7-2.2,4.7-4.3s-1.1-3.5-3.9-3.5c-4.1,0-9,.6-14.6.6s-10.1-.6-14.4-.6-3.9,1.5-3.9,3.4,1.3,3.4,4.3,4.3c8.2,2.2,9,5.8,5.8,15.5-5,15.3-10.7,30.1-19.2,49.7-7.3-18.1-13.5-34.4-19.6-52.7-2.2-7.1-1.5-10.1,7.3-12.5,3.4-.9,4.5-2,4.5-4.1s-1.5-3.5-4.1-3.5c-5.6,0-11.4.6-19,.6s-14.2-.6-20-.6-4.1,1.7-4.1,3.5,1.1,3.4,4.5,4.3c4.3,1.1,5.6,2.6,8.2,9.3,10.3,25.6,19.4,48.2,31.4,78.8-8,14.8-14,18.1-22,19.6-6.5,1.1-10.8,5.2-10.8,10.5s3,9,10.1,9h-.4Z"/>
  <g>
    <path class="cls-1" d="M17.1,176.3l-1.6-.3c-1.1.4-2.7.7-4.4.7-5.6,0-9.9-3.2-9.9-9s4.3-9.4,9.9-9.4,3.3.4,4,.6l2.4-.5v6h-1.6l-1-3.8c-1.1-.6-2.2-1-3.8-1-4,0-6.4,3.2-6.4,7.7s2.4,8.1,6.7,8.1,2.4-.3,3.3-.8l1.3-4h1.7l-.6,5.6Z"/>
    <path class="cls-1" d="M26.7,176.7c-3.9,0-6.3-3-6.3-6.7s3-6.8,6.8-6.8,6.3,2.9,6.3,6.4-2.9,7-6.8,7ZM29,165.4c-.4-.4-1.1-1-2.2-1-1.9,0-3.4,1.8-3.4,4.8s.4,4.3,1.4,5.3c.4.4,1.1.9,2.2.9,1.8,0,3.3-1.8,3.3-4.8s-.4-4.3-1.4-5.3Z"/>
    <path class="cls-1" d="M35.2,176.3v-1c0,0,.8,0,.8,0,.7,0,1-.2,1-.5v-14.2c0-.4-.1-.7-.4-.8l-1.7-.7v-.8c0,0,4.8-1.4,4.8-1.4v17.9c0,.3.2.4,1.1.5h.7c0,0,0,1.1,0,1.1h-6.4Z"/>
    <path class="cls-1" d="M43.1,176.3v-1c0,0,.8,0,.8,0,.7,0,1-.2,1-.5v-14.2c0-.4-.1-.7-.4-.8l-1.7-.7v-.8c0,0,4.8-1.4,4.8-1.4v17.9c0,.3.2.4,1.1.5h.7c0,0,0,1.1,0,1.1h-6.4Z"/>
    <path class="cls-1" d="M56.9,176.7c-3.3,0-5.7-2.7-5.7-6.3s2.9-7.2,6.7-7.2,4.6,1.7,4.6,4.3,0,1.1-.2,1.5h-8.1c0-.1,0,.2,0,.2,0,3.1,1.7,5.2,4.1,5.2s2.5-.5,3.5-1.6l.6.3c-1,2.2-2.9,3.5-5.4,3.5ZM57.2,164.4c-1.5,0-2.9,1.3-3.1,3.6,0,0,5.4,0,5.3,0,.1-2.3-.8-3.6-2.2-3.6Z"/>
    <path class="cls-1" d="M74.2,165.5h0c.3.6.6,1.3.6,2.2,0,2.7-2.2,4.7-5.2,4.7s-1.2,0-1.7-.2c-.4.2-1,.7-1,1.2,0,.8.7,1.3,1.8,1.3s2.4,0,3.4,0c2.3,0,4.1,1.7,4.1,3.8s-3,5.2-7.4,5.2-5.1-1.3-5.1-3.3,1.2-2.6,2.7-3.2h0c-1.1-.4-1.9-1.3-1.9-2.4s1-2.3,2.4-2.8c0-.1,0-.1,0-.1-1.4-.6-2.5-1.8-2.5-3.9s2-4.7,5.2-4.7,2.4.3,3.4.8h3.9v2s-2.9-.5-2.9-.5ZM71.4,177.3c-.9,0-2,0-3.8,0-.4.2-1.4,1-1.4,2.2s1.6,2.9,3.9,2.9,3.8-1.2,3.8-2.8-.6-2.2-2.5-2.3ZM71.1,164.9c-.4-.4-.9-.6-1.5-.6-1.4,0-2.4,1.2-2.4,3.2s.4,2.5,1.1,3.2c.4.3.8.6,1.3.6s1.2-.2,1.6-.6c.6-.5.8-1.5.8-2.9s-.3-2.4-.9-3Z"/>
    <path class="cls-1" d="M83.6,176.7c-3.3,0-5.7-2.7-5.7-6.3s2.9-7.2,6.7-7.2,4.6,1.7,4.6,4.3,0,1.1-.2,1.5h-8.1c0-.1,0,.2,0,.2,0,3.1,1.7,5.2,4.1,5.2s2.5-.5,3.5-1.6l.6.3c-1,2.2-2.9,3.5-5.4,3.5ZM84,164.4c-1.5,0-2.9,1.3-3.1,3.6,0,0,5.4,0,5.3,0,.1-2.3-.8-3.6-2.2-3.6Z"/>
    <path class="cls-1" d="M103.7,176.7c-3.9,0-6.3-3-6.3-6.7s3-6.8,6.8-6.8,6.3,2.9,6.3,6.4-2.9,7-6.8,7ZM106,165.4c-.4-.4-1.1-1-2.2-1-1.9,0-3.4,1.8-3.4,4.8s.4,4.3,1.4,5.3c.4.4,1.1.9,2.2.9,1.8,0,3.3-1.8,3.3-4.8s-.4-4.3-1.4-5.3Z"/>
    <path class="cls-1" d="M121.4,160.3c-.9,0-1.7-.6-2-2.1h0c0-.1-.8-.2-.8-.2-1.1.7-1.8,2.2-1.8,4.7v1h3.8l-.2,1.5h-3.6v9.4c0,.3.2.4,1.1.5h1.3c0,0,0,1.1,0,1.1h-7v-1c0,0,.8,0,.8,0,.7,0,1-.2,1-.5v-9.2l-2.3-.2.2-1.5h2v-.6c.3-3.8,3.1-6.4,6.2-6.4s2.9.8,2.9,2-.7,1.5-1.5,1.5Z"/>
    <path class="cls-1" d="M144.3,176.3l-1.6-.3c-1.1.4-2.7.7-4.4.7-5.6,0-9.9-3.2-9.9-9s4.3-9.4,9.9-9.4,3.3.4,4,.6l2.4-.5v6h-1.6l-1-3.8c-1.1-.6-2.2-1-3.8-1-4,0-6.4,3.2-6.4,7.7s2.4,8.1,6.7,8.1,2.4-.3,3.3-.8l1.3-4h1.7l-.6,5.6Z"/>
    <path class="cls-1" d="M153.8,176.7c-3.9,0-6.3-3-6.3-6.7s3-6.8,6.8-6.8,6.3,2.9,6.3,6.4-2.9,7-6.8,7ZM156.1,165.4c-.4-.4-1.1-1-2.2-1-1.9,0-3.4,1.8-3.4,4.8s.4,4.3,1.4,5.3c.4.4,1.1.9,2.2.9,1.8,0,3.3-1.8,3.3-4.8s-.4-4.3-1.4-5.3Z"/>
    <path class="cls-1" d="M178.1,176.3v-1c0,0,.7,0,.7,0,.8,0,1-.3,1-.5v-5.7c0-2.8-1.1-3.5-2.5-3.5s-1.9.5-2.6,1.1c0,.2,0,.5,0,.8v7.3c0,.3.1.4,1.1.5h.6c0,0,0,1.1,0,1.1h-6.3v-1c.1,0,.7,0,.7,0,.8,0,1-.3,1-.5v-5.7c0-2.8-1.1-3.5-2.5-3.5s-1.9.5-2.5,1v8.2c0,.3.2.4,1.1.5h.8c0,0,0,1.1,0,1.1h-6.5v-1c0,0,.8,0,.8,0,.7,0,1-.2,1-.5v-6.9c0-1.8-.2-2-1.2-2.3h-.6c0-.1,0-1,0-1l4.6-1.3v2h0c1.5-1.2,2.9-2,4.3-2s1.7.3,2.4.9c.3.4.6.8.8,1.3h.1c1.5-1.4,3.1-2.2,4.6-2.2s1.7.3,2.4.9c.7.8,1.1,1.8,1.1,3.2v7.3c0,.3.1.4,1.1.5h.6c0,0,0,1.1,0,1.1h-6.4Z"/>
    <path class="cls-1" d="M192.5,176.7c-.7,0-1.8-.2-2.5-.4h0v5.2c0,.3.2.4,1.1.5h1c0,0,0,1.1,0,1.1h-6.8v-1c0,0,.9,0,.9,0,.7,0,1-.2,1-.5v-13.8c0-1.8-.2-2-1.2-2.3h-.6c0-.1,0-1,0-1l4.6-1.3v2.3h.1c1.1-1.2,2.5-2.1,4-2.1,3.1,0,5.1,2.7,5.1,6s-2.5,7.2-6.7,7.2ZM192.7,165.6c-1.2,0-2.2.6-2.8,1.3v6.8c.9,1,1.8,1.7,3,1.7s3.1-1.9,3.1-4.9-1.4-5-3.4-5Z"/>
    <path class="cls-1" d="M215,176.2l-4.7.5v-2h-.1c-1.5,1.2-3,2-4.6,2s-1.7-.3-2.3-.9c-.8-.8-1.1-1.8-1.1-3.2v-7.3c0-.4-.1-.4-1.1-.5h-.6c0,0,0-1.1,0-1.1h4.8l-.2,7.3c0,2.7.9,3.5,2.5,3.5s2.2-.5,2.8-1v-8.2c0-.3-.2-.4-1.1-.5h-1c0,0-.1-1.1-.1-1.1h4.9v10.4c0,.4.1.7.4.8l1.7.5v.8Z"/>
    <path class="cls-1" d="M221,176.7c-2,0-3.5-1.2-3.4-4l.2-7.3-2.2-.2v-.9s3.8-3.3,3.8-3.3l1.1.2v2.6s4.5,0,4.5,0l-.2,1.5h-4.4l-.2,6.6c0,2.1.9,2.8,2.4,2.8s1.6-.3,2.4-.6v.8c-.9,1.1-2.5,1.9-4,1.9Z"/>
    <path class="cls-1" d="M226.3,176.3v-1c0,0,.8,0,.8,0,.7,0,1-.2,1-.5v-6.9c0-1.8-.2-2-1.2-2.3h-.6c0-.1,0-1,0-1l4.6-1.3v11.4c0,.3.2.4,1.1.5h.7c0,0,0,1.1,0,1.1h-6.4ZM229.2,161.1c-1.1,0-1.8-.9-1.8-1.9s.6-1.8,1.8-1.8,1.8.9,1.8,1.8-.6,1.9-1.8,1.9Z"/>
    <path class="cls-1" d="M242.4,176.3v-1c0,0,.7,0,.7,0,.8,0,1-.3,1-.5v-5.7c0-2.8-.9-3.5-2.5-3.5s-2.2.5-2.8,1v8.2c0,.3.2.4,1.1.5h.8c0,0,0,1.1,0,1.1h-6.6v-1c0,0,.8,0,.8,0,.7,0,1-.2,1-.5v-6.9c0-1.8-.2-2-1.2-2.3h-.6c0-.1,0-1,0-1l4.6-1.3v2h.1c1.5-1.2,3-2,4.5-2s1.7.3,2.3.9,1.1,1.8,1.1,3.2v7.3c0,.3.1.4,1.1.5h.7c0,0,0,1.1,0,1.1h-6.4Z"/>
    <path class="cls-1" d="M259.9,165.5h0c.3.6.6,1.3.6,2.2,0,2.7-2.2,4.7-5.2,4.7s-1.2,0-1.7-.2c-.4.2-1,.7-1,1.2,0,.8.7,1.3,1.8,1.3s2.4,0,3.4,0c2.3,0,4.1,1.7,4.1,3.8s-3,5.2-7.4,5.2-5.1-1.3-5.1-3.3,1.2-2.6,2.7-3.2h0c-1.1-.4-1.9-1.3-1.9-2.4s1-2.3,2.4-2.8c0-.1,0-.1,0-.1-1.4-.6-2.5-1.8-2.5-3.9s2-4.7,5.2-4.7,2.4.3,3.4.8h3.9v2s-2.9-.5-2.9-.5ZM257.1,177.3c-.9,0-2,0-3.8,0-.4.2-1.4,1-1.4,2.2s1.6,2.9,3.9,2.9,3.8-1.2,3.8-2.8-.6-2.2-2.5-2.3ZM256.8,164.9c-.4-.4-.9-.6-1.5-.6-1.4,0-2.4,1.2-2.4,3.2s.4,2.5,1.1,3.2c.4.3.8.6,1.3.6s1.2-.2,1.6-.6c.6-.5.8-1.5.8-2.9s-.3-2.4-.9-3Z"/>
    <path class="cls-1" d="M263.9,181.4l-.8-.6c1.3-.9,2.5-2.2,2.5-3.7s-2.4-2.4-2.4-2.5c0-1,.8-1.8,2.1-1.8s2.7,1.2,2.7,2.8c0,2.4-2.1,4.3-4.2,5.8Z"/>
    <path class="cls-1" d="M283.1,176.3h-6.8v-1c0,0,1.2-.1,1.2-.1.7,0,1-.3,1-.5v-14.2c0-.3-.2-.4-1-.5h-1c0-.1,0-1.2,0-1.2h6.9c6.4-.2,10.5,3.4,10.5,8.3s-3.6,9.2-10.5,9.2ZM282.5,159.9h-.9v14.8l2,.4c4.2,0,6.6-3.2,6.6-7.4s-2.6-7.9-7.7-7.9Z"/>
    <path class="cls-1" d="M305,176.8c-1.1,0-2-.7-2-2.2h-.1c-1,1.2-2.1,2.2-3.6,2.2s-3.4-1.3-3.4-3.3,2.3-3.7,7.1-4.8v-.3c0-2.7-1-3.6-2.7-3.6s-2,.4-2,.6.7.6.7,1.5-.6,1.4-1.6,1.4-1.6-.6-1.6-1.4c0-1.5,3.2-3.6,5.8-3.6s4.4,1.3,4.2,5.7l-.2,4.7c0,.8.2,1.1.6,1.1s.8-.3,1.3-.7l.5.7c-.9,1.1-2,2-3,2ZM302.9,169.6c-3.5.9-4.3,2-4.3,3.2s.9,2,1.9,2,1.5-.4,2.3-1.1v-4Z"/>
    <path class="cls-1" d="M313.7,176.7c-2,0-3.5-1.2-3.4-4l.2-7.3-2.2-.2v-.9s3.8-3.3,3.8-3.3l1.1.2v2.6s4.5,0,4.5,0l-.2,1.5h-4.4l-.2,6.6c0,2.1.9,2.8,2.4,2.8s1.6-.3,2.4-.6v.8c-.9,1.1-2.5,1.9-4,1.9Z"/>
    <path class="cls-1" d="M328.3,176.8c-1.1,0-2-.7-2-2.2h-.1c-1,1.2-2.1,2.2-3.6,2.2s-3.4-1.3-3.4-3.3,2.3-3.7,7.1-4.8v-.3c0-2.7-1-3.6-2.7-3.6s-2,.4-2,.6.7.6.7,1.5-.6,1.4-1.6,1.4-1.6-.6-1.6-1.4c0-1.5,3.2-3.6,5.8-3.6s4.4,1.3,4.2,5.7l-.2,4.7c0,.8.2,1.1.6,1.1s.8-.3,1.3-.7l.5.7c-.9,1.1-2,2-3,2ZM326.2,169.6c-3.5.9-4.3,2-4.3,3.2s.9,2,1.9,2,1.5-.4,2.3-1.1v-4Z"/>
    <path class="cls-1" d="M344.7,176.7c-2.2,0-3.7-.3-5.2-.8l-.3-5.2h1.5l1.3,4c1,.4,2.2.7,3.2.7,2.4,0,3.6-1.5,3.6-3,0-2.3-1.9-3-4.3-3.8-2.8-1-5.1-2.1-5.1-5.2s2-5,6.2-5c1.6,0,2.5.2,3.6.4l1.5-.4v5.7h-1.5l-1-3.7c-1-.4-2-.6-2.9-.6-2.1,0-3.2,1.2-3.2,2.5,0,2.1,1.8,2.8,4.1,3.6,3,1.1,5.4,2.2,5.4,5.4s-2.5,5.3-6.7,5.4Z"/>
    <path class="cls-1" d="M359.4,176.7c-3.3,0-5.8-2.7-5.8-6.3s3.1-7.2,6.8-7.2,4.2,1.3,4.2,2.8-.9,1.6-1.7,1.6c-1.2,0-1.9-1.3-1.6-2.8h0c-.3-.3-.8-.4-1.3-.4-1.9,0-3.4,1.7-3.4,4.6s1.7,5.4,4.1,5.4,2.5-.5,3.5-1.6l.6.3c-1,2.2-2.9,3.5-5.3,3.5Z"/>
    <path class="cls-1" d="M366.2,176.3v-1c0,0,.8,0,.8,0,.7,0,1-.2,1-.5v-6.9c0-1.8-.2-2-1.2-2.3h-.6c0-.1,0-1,0-1l4.6-1.3v11.4c0,.3.2.4,1.1.5h.7c0,0,0,1.1,0,1.1h-6.4ZM369.1,161.1c-1.1,0-1.8-.9-1.8-1.9s.6-1.8,1.8-1.8,1.8.9,1.8,1.8-.6,1.9-1.8,1.9Z"/>
    <path class="cls-1" d="M380,176.7c-3.3,0-5.7-2.7-5.7-6.3s2.9-7.2,6.7-7.2,4.6,1.7,4.6,4.3,0,1.1-.2,1.5h-8.1c0-.1,0,.2,0,.2,0,3.1,1.7,5.2,4.1,5.2s2.5-.5,3.5-1.6l.6.3c-1,2.2-2.9,3.5-5.4,3.5ZM380.4,164.4c-1.5,0-2.9,1.3-3.1,3.6,0,0,5.4,0,5.3,0,.1-2.3-.8-3.6-2.2-3.6Z"/>
    <path class="cls-1" d="M395.5,176.3v-1c0,0,.7,0,.7,0,.8,0,1-.3,1-.5v-5.7c0-2.8-.9-3.5-2.5-3.5s-2.2.5-2.8,1v8.2c0,.3.2.4,1.1.5h.8c0,0,0,1.1,0,1.1h-6.6v-1c0,0,.8,0,.8,0,.7,0,1-.2,1-.5v-6.9c0-1.8-.2-2-1.2-2.3h-.6c0-.1,0-1,0-1l4.6-1.3v2h.1c1.5-1.2,3-2,4.5-2s1.7.3,2.3.9c.8.8,1.1,1.8,1.1,3.2v7.3c0,.3.1.4,1.1.5h.7c0,0,0,1.1,0,1.1h-6.4Z"/>
    <path class="cls-1" d="M408.9,176.7c-3.3,0-5.8-2.7-5.8-6.3s3.1-7.2,6.8-7.2,4.2,1.3,4.2,2.8-.9,1.6-1.7,1.6c-1.2,0-1.9-1.3-1.6-2.8h0c-.3-.3-.8-.4-1.3-.4-1.9,0-3.4,1.7-3.4,4.6s1.7,5.4,4.1,5.4,2.5-.5,3.5-1.6l.6.3c-1,2.2-2.9,3.5-5.3,3.5Z"/>
    <path class="cls-1" d="M421.6,176.7c-3.3,0-5.7-2.7-5.7-6.3s2.9-7.2,6.7-7.2,4.6,1.7,4.6,4.3,0,1.1-.2,1.5h-8.1c0-.1,0,.2,0,.2,0,3.1,1.7,5.2,4.1,5.2s2.5-.5,3.5-1.6l.6.3c-1,2.2-2.9,3.5-5.4,3.5ZM422,164.4c-1.5,0-2.9,1.3-3.1,3.6,0,0,5.4,0,5.3,0,.1-2.3-.8-3.6-2.2-3.6Z"/>
    <path class="cls-1" d="M429.7,181.4l-.8-.6c1.3-.9,2.5-2.2,2.5-3.7s-2.4-2.4-2.4-2.5c0-1,.8-1.8,2.1-1.8s2.7,1.2,2.7,2.8c0,2.4-2.1,4.3-4.2,5.8Z"/>
    <path class="cls-1" d="M451.1,176.8c-1.1,0-2-.7-2-2.2h-.1c-1,1.2-2.1,2.2-3.6,2.2s-3.4-1.3-3.4-3.3,2.3-3.7,7.1-4.8v-.3c0-2.7-1-3.6-2.7-3.6s-2,.4-2,.6.7.6.7,1.5-.6,1.4-1.6,1.4-1.6-.6-1.6-1.4c0-1.5,3.2-3.6,5.8-3.6s4.4,1.3,4.2,5.7l-.2,4.7c0,.8.2,1.1.6,1.1s.8-.3,1.3-.7l.5.7c-.9,1.1-2,2-3,2ZM449,169.6c-3.5.9-4.3,2-4.3,3.2s.9,2,1.9,2,1.5-.4,2.3-1.1v-4Z"/>
    <path class="cls-1" d="M463.1,176.3v-1c0,0,.7,0,.7,0,.8,0,1-.3,1-.5v-5.7c0-2.8-.9-3.5-2.5-3.5s-2.2.5-2.8,1v8.2c0,.3.2.4,1.1.5h.8c0,0,0,1.1,0,1.1h-6.6v-1c0,0,.8,0,.8,0,.7,0,1-.2,1-.5v-6.9c0-1.8-.2-2-1.2-2.3h-.6c0-.1,0-1,0-1l4.6-1.3v2h.1c1.5-1.2,3-2,4.5-2s1.7.3,2.3.9c.8.8,1.1,1.8,1.1,3.2v7.3c0,.3.1.4,1.1.5h.7c0,0,0,1.1,0,1.1h-6.4Z"/>
    <path class="cls-1" d="M484.7,176.2l-4.8.5v-2h0c-1,1.1-2.4,1.9-3.9,1.9-3.1,0-5.2-2.7-5.2-6.2s2.6-7.1,7-7.1,1.5.1,2.2.3h0v-4.1c0-.4-.1-.7-.4-.8l-1.8-.6v-.7c.1,0,5-.7,5-.7v17.2c0,.4.1.7.4.8l1.7.5v.8ZM479.9,166.4c-.8-1-1.8-1.8-3-1.8-1.8,0-3.1,1.8-3.1,4.8s1.5,5.2,3.6,5.2,1.8-.4,2.5-1.1v-7.1Z"/>
    <path class="cls-1" d="M498.4,176.7c-2.2,0-3.7-.3-5.2-.8l-.3-5.2h1.5l1.3,4c1,.4,2.2.7,3.2.7,2.4,0,3.6-1.5,3.6-3,0-2.3-1.9-3-4.3-3.8-2.8-1-5.1-2.1-5.1-5.2s2-5,6.2-5c1.6,0,2.5.2,3.6.4l1.5-.4v5.7h-1.5l-1-3.7c-1-.4-2-.6-2.9-.6-2.1,0-3.2,1.2-3.2,2.5,0,2.1,1.8,2.8,4.1,3.6,3,1.1,5.4,2.2,5.4,5.4s-2.5,5.3-6.7,5.4Z"/>
    <path class="cls-1" d="M513.6,176.7c-3.9,0-6.3-3-6.3-6.7s3-6.8,6.8-6.8,6.3,2.9,6.3,6.4-2.9,7-6.8,7ZM515.9,165.4c-.4-.4-1.1-1-2.2-1-1.9,0-3.4,1.8-3.4,4.8s.4,4.3,1.4,5.3c.4.4,1.1.9,2.2.9,1.8,0,3.3-1.8,3.3-4.8s-.4-4.3-1.4-5.3Z"/>
    <path class="cls-1" d="M528,176.7c-3.3,0-5.8-2.7-5.8-6.3s3.1-7.2,6.8-7.2,4.2,1.3,4.2,2.8-.9,1.6-1.7,1.6c-1.2,0-1.9-1.3-1.6-2.8h0c-.3-.3-.8-.4-1.3-.4-1.9,0-3.4,1.7-3.4,4.6s1.7,5.4,4.1,5.4,2.5-.5,3.5-1.6l.6.3c-1,2.2-2.9,3.5-5.3,3.5Z"/>
    <path class="cls-1" d="M534.9,176.3v-1c0,0,.8,0,.8,0,.7,0,1-.2,1-.5v-6.9c0-1.8-.2-2-1.2-2.3h-.6c0-.1,0-1,0-1l4.6-1.3v11.4c0,.3.2.4,1.1.5h.7c0,0,0,1.1,0,1.1h-6.4ZM537.7,161.1c-1.1,0-1.8-.9-1.8-1.9s.6-1.8,1.8-1.8,1.8.9,1.8,1.8-.6,1.9-1.8,1.9Z"/>
    <path class="cls-1" d="M548.6,176.7c-3.3,0-5.7-2.7-5.7-6.3s2.9-7.2,6.7-7.2,4.6,1.7,4.6,4.3,0,1.1-.2,1.5h-8.1c0-.1,0,.2,0,.2,0,3.1,1.7,5.2,4.1,5.2s2.5-.5,3.5-1.6l.6.3c-1,2.2-2.9,3.5-5.4,3.5ZM549,164.4c-1.5,0-2.9,1.3-3.1,3.6,0,0,5.4,0,5.3,0,.1-2.3-.8-3.6-2.2-3.6Z"/>
    <path class="cls-1" d="M560.9,176.7c-2,0-3.5-1.2-3.4-4l.2-7.3-2.2-.2v-.9s3.8-3.3,3.8-3.3l1.1.2v2.6s4.5,0,4.5,0l-.2,1.5h-4.4l-.2,6.6c0,2.1.9,2.8,2.4,2.8s1.6-.3,2.4-.6v.8c-.9,1.1-2.5,1.9-4,1.9Z"/>
    <path class="cls-1" d="M579.2,164.7l-.8.2c-.8.1-1.1.5-1.6,1.9l-3.3,8.7-1.5,4.5c-.8,2.4-1.7,3.6-3.4,3.6s-2-.7-2-1.7.5-1.6,1.5-1.6,1.4.5,1.7,1c.4-.2.7-.7,1.1-1.9l1-2.7h0c0-.1-5-10.8-5-10.8-.3-.7-.5-.9-1.3-1l-.6-.2v-1.1c-.1,0,6.4,0,6.4,0v1c0,0-.8.2-.8.2-.6,0-.8.4-.5,1l3.1,7.2,2.3-6.5c.4-1.1.3-1.6-.6-1.7l-.8-.2v-1c0,0,5.2,0,5.2,0v1Z"/>
  </g>
</svg>