<svg width="4378" height="2389" viewBox="0 0 4378 2389" fill="none" xmlns="http://www.w3.org/2000/svg">
<rect width="4378" height="2388" fill="#D8E1E4"/>
<path d="M1449.52 296.679C1712.02 296.679 1712.02 579.366 1974.51 579.366" stroke="#505050" stroke-width="2"/>
<path d="M1449.52 296.679C1712.02 296.679 1712.02 673.595 1974.51 673.595" stroke="#505050" stroke-width="2"/>
<path d="M1449.52 296.679C1712.02 296.679 1712.02 767.824 1974.51 767.824" stroke="#505050" stroke-width="2"/>
<path d="M1449.52 296.679C1712.02 296.679 1712.02 862.053 1974.51 862.053" stroke="#505050" stroke-width="2"/>
<path d="M1449.52 296.679C1712.02 296.679 1712.02 956.282 1974.51 956.282" stroke="#505050" stroke-width="2"/>
<path d="M1449.52 296.679C1712.02 296.679 1712.02 1050.51 1974.51 1050.51" stroke="#505050" stroke-width="2"/>
<path d="M1449.52 296.679C1712.02 296.679 1712.02 1144.74 1974.51 1144.74" stroke="#505050" stroke-width="2"/>
<path d="M1449.52 296.679C1712.02 296.679 1712.02 1238.97 1974.51 1238.97" stroke="#505050" stroke-width="2"/>
<path d="M1449.52 296.679C1712.02 296.679 1712.02 1333.2 1974.51 1333.2" stroke="#505050" stroke-width="2"/>
<path d="M1449.52 296.679C1712.02 296.679 1712.02 1427.43 1974.51 1427.43" stroke="#505050" stroke-width="2"/>
<path d="M1449.52 296.679C1712.02 296.679 1712.02 1521.66 1974.51 1521.66" stroke="#505050" stroke-width="2"/>
<path d="M1449.52 390.908C1712.02 390.908 1712.02 579.366 1974.51 579.366" stroke="#505050" stroke-width="2"/>
<path d="M1449.52 390.908C1712.02 390.908 1712.02 673.595 1974.51 673.595" stroke="#505050" stroke-width="2"/>
<path d="M1449.52 390.908C1712.02 390.908 1712.02 767.824 1974.51 767.824" stroke="#505050" stroke-width="2"/>
<path d="M1449.52 390.908C1712.02 390.908 1712.02 862.053 1974.51 862.053" stroke="#505050" stroke-width="2"/>
<path d="M1449.52 390.908C1712.02 390.908 1712.02 956.282 1974.51 956.282" stroke="#505050" stroke-width="2"/>
<path d="M1449.52 390.908C1712.02 390.908 1712.02 1050.51 1974.51 1050.51" stroke="#505050" stroke-width="2"/>
<path d="M1449.52 390.908C1712.02 390.908 1712.02 1144.74 1974.51 1144.74" stroke="#505050" stroke-width="2"/>
<path d="M1449.52 390.908C1712.02 390.908 1712.02 1238.97 1974.51 1238.97" stroke="#505050" stroke-width="2"/>
<path d="M1449.52 390.908C1712.02 390.908 1712.02 1333.2 1974.51 1333.2" stroke="#505050" stroke-width="2"/>
<path d="M1449.52 390.908C1712.02 390.908 1712.02 1427.43 1974.51 1427.43" stroke="#505050" stroke-width="2"/>
<path d="M1449.52 390.908C1712.02 390.908 1712.02 1521.66 1974.51 1521.66" stroke="#505050" stroke-width="2"/>
<path d="M1449.52 485.137C1712.02 485.137 1712.02 579.366 1974.51 579.366" stroke="#505050" stroke-width="2"/>
<path d="M1449.52 485.137C1712.02 485.137 1712.02 673.595 1974.51 673.595" stroke="#505050" stroke-width="2"/>
<path d="M1449.52 485.137C1712.02 485.137 1712.02 767.824 1974.51 767.824" stroke="#505050" stroke-width="2"/>
<path d="M1449.52 485.137C1712.02 485.137 1712.02 862.053 1974.51 862.053" stroke="#505050" stroke-width="2"/>
<path d="M1449.52 485.137C1712.02 485.137 1712.02 956.282 1974.51 956.282" stroke="#505050" stroke-width="2"/>
<path d="M1449.52 485.137C1712.02 485.137 1712.02 1050.51 1974.51 1050.51" stroke="#505050" stroke-width="2"/>
<path d="M1449.52 485.137C1712.02 485.137 1712.02 1144.74 1974.51 1144.74" stroke="#505050" stroke-width="2"/>
<path d="M1449.52 485.137C1712.02 485.137 1712.02 1238.97 1974.51 1238.97" stroke="#505050" stroke-width="2"/>
<path d="M1449.52 485.137C1712.02 485.137 1712.02 1333.2 1974.51 1333.2" stroke="#505050" stroke-width="2"/>
<path d="M1449.52 485.137C1712.02 485.137 1712.02 1427.43 1974.51 1427.43" stroke="#505050" stroke-width="2"/>
<path d="M1449.52 485.137C1712.02 485.137 1712.02 1521.66 1974.51 1521.66" stroke="#505050" stroke-width="2"/>
<path d="M1449.52 579.366C1712.02 579.366 1712.02 579.366 1974.51 579.366" stroke="#505050" stroke-width="2"/>
<path d="M1449.52 579.366C1712.02 579.366 1712.02 673.595 1974.51 673.595" stroke="#505050" stroke-width="2"/>
<path d="M1449.52 579.366C1712.02 579.366 1712.02 767.824 1974.51 767.824" stroke="#505050" stroke-width="2"/>
<path d="M1449.52 579.366C1712.02 579.366 1712.02 862.053 1974.51 862.053" stroke="#505050" stroke-width="2"/>
<path d="M1449.52 579.366C1712.02 579.366 1712.02 956.282 1974.51 956.282" stroke="#505050" stroke-width="2"/>
<path d="M1449.52 579.366C1712.02 579.366 1712.02 1050.51 1974.51 1050.51" stroke="#505050" stroke-width="2"/>
<path d="M1449.52 579.366C1712.02 579.366 1712.02 1144.74 1974.51 1144.74" stroke="#505050" stroke-width="2"/>
<path d="M1449.52 579.366C1712.02 579.366 1712.02 1238.97 1974.51 1238.97" stroke="#505050" stroke-width="2"/>
<path d="M1449.52 579.366C1712.02 579.366 1712.02 1333.2 1974.51 1333.2" stroke="#505050" stroke-width="2"/>
<path d="M1449.52 579.366C1712.02 579.366 1712.02 1427.43 1974.51 1427.43" stroke="#505050" stroke-width="2"/>
<path d="M1449.52 579.366C1712.02 579.366 1712.02 1521.66 1974.51 1521.66" stroke="#505050" stroke-width="2"/>
<path d="M1449.52 673.595C1712.02 673.595 1712.02 579.366 1974.51 579.366" stroke="#505050" stroke-width="2"/>
<path d="M1449.52 673.595C1712.02 673.595 1712.02 673.595 1974.51 673.595" stroke="#505050" stroke-width="2"/>
<path d="M1449.52 673.595C1712.02 673.595 1712.02 767.824 1974.51 767.824" stroke="#505050" stroke-width="2"/>
<path d="M1449.52 673.595C1712.02 673.595 1712.02 862.053 1974.51 862.053" stroke="#505050" stroke-width="2"/>
<path d="M1449.52 673.595C1712.02 673.595 1712.02 956.282 1974.51 956.282" stroke="#505050" stroke-width="2"/>
<path d="M1449.52 673.595C1712.02 673.595 1712.02 1050.51 1974.51 1050.51" stroke="#505050" stroke-width="2"/>
<path d="M1449.52 673.595C1712.02 673.595 1712.02 1144.74 1974.51 1144.74" stroke="#505050" stroke-width="2"/>
<path d="M1449.52 673.595C1712.02 673.595 1712.02 1238.97 1974.51 1238.97" stroke="#505050" stroke-width="2"/>
<path d="M1449.52 673.595C1712.02 673.595 1712.02 1333.2 1974.51 1333.2" stroke="#505050" stroke-width="2"/>
<path d="M1449.52 673.595C1712.02 673.595 1712.02 1427.43 1974.51 1427.43" stroke="#505050" stroke-width="2"/>
<path d="M1449.52 673.595C1712.02 673.595 1712.02 1521.66 1974.51 1521.66" stroke="#505050" stroke-width="2"/>
<path d="M1449.52 767.824C1712.02 767.824 1712.02 579.366 1974.51 579.366" stroke="#505050" stroke-width="2"/>
<path d="M1449.52 767.824C1712.02 767.824 1712.02 673.595 1974.51 673.595" stroke="#505050" stroke-width="2"/>
<path d="M1449.52 767.824C1712.02 767.824 1712.02 767.824 1974.51 767.824" stroke="#505050" stroke-width="2"/>
<path d="M1449.52 767.824C1712.02 767.824 1712.02 862.053 1974.51 862.053" stroke="#505050" stroke-width="2"/>
<path d="M1449.52 767.824C1712.02 767.824 1712.02 956.282 1974.51 956.282" stroke="#505050" stroke-width="2"/>
<path d="M1449.52 767.824C1712.02 767.824 1712.02 1050.51 1974.51 1050.51" stroke="#505050" stroke-width="2"/>
<path d="M1449.52 767.824C1712.02 767.824 1712.02 1144.74 1974.51 1144.74" stroke="#505050" stroke-width="2"/>
<path d="M1449.52 767.824C1712.02 767.824 1712.02 1238.97 1974.51 1238.97" stroke="#505050" stroke-width="2"/>
<path d="M1449.52 767.824C1712.02 767.824 1712.02 1333.2 1974.51 1333.2" stroke="#505050" stroke-width="2"/>
<path d="M1449.52 767.824C1712.02 767.824 1712.02 1427.43 1974.51 1427.43" stroke="#505050" stroke-width="2"/>
<path d="M1449.52 767.824C1712.02 767.824 1712.02 1521.66 1974.51 1521.66" stroke="#505050" stroke-width="2"/>
<path d="M1449.52 862.053C1712.02 862.053 1712.02 579.366 1974.51 579.366" stroke="#505050" stroke-width="2"/>
<path d="M1449.52 862.053C1712.02 862.053 1712.02 673.595 1974.51 673.595" stroke="#505050" stroke-width="2"/>
<path d="M1449.52 862.053C1712.02 862.053 1712.02 767.824 1974.51 767.824" stroke="#505050" stroke-width="2"/>
<path d="M1449.52 862.053C1712.02 862.053 1712.02 862.053 1974.51 862.053" stroke="#505050" stroke-width="2"/>
<path d="M1449.52 862.053C1712.02 862.053 1712.02 956.282 1974.51 956.282" stroke="#505050" stroke-width="2"/>
<path d="M1449.52 862.053C1712.02 862.053 1712.02 1050.51 1974.51 1050.51" stroke="#505050" stroke-width="2"/>
<path d="M1449.52 862.053C1712.02 862.053 1712.02 1144.74 1974.51 1144.74" stroke="#505050" stroke-width="2"/>
<path d="M1449.52 862.053C1712.02 862.053 1712.02 1238.97 1974.51 1238.97" stroke="#505050" stroke-width="2"/>
<path d="M1449.52 862.053C1712.02 862.053 1712.02 1333.2 1974.51 1333.2" stroke="#505050" stroke-width="2"/>
<path d="M1449.52 862.053C1712.02 862.053 1712.02 1427.43 1974.51 1427.43" stroke="#505050" stroke-width="2"/>
<path d="M1449.52 862.053C1712.02 862.053 1712.02 1521.66 1974.51 1521.66" stroke="#505050" stroke-width="2"/>
<path d="M1449.52 956.282C1712.02 956.282 1712.02 579.366 1974.51 579.366" stroke="#505050" stroke-width="2"/>
<path d="M1449.52 956.282C1712.02 956.282 1712.02 673.595 1974.51 673.595" stroke="#505050" stroke-width="2"/>
<path d="M1449.52 956.282C1712.02 956.282 1712.02 767.824 1974.51 767.824" stroke="#505050" stroke-width="2"/>
<path d="M1449.52 956.282C1712.02 956.282 1712.02 862.053 1974.51 862.053" stroke="#505050" stroke-width="2"/>
<path d="M1449.52 956.282C1712.02 956.282 1712.02 956.282 1974.51 956.282" stroke="#505050" stroke-width="2"/>
<path d="M1449.52 956.282C1712.02 956.282 1712.02 1050.51 1974.51 1050.51" stroke="#505050" stroke-width="2"/>
<path d="M1449.52 956.282C1712.02 956.282 1712.02 1144.74 1974.51 1144.74" stroke="#505050" stroke-width="2"/>
<path d="M1449.52 956.282C1712.02 956.282 1712.02 1238.97 1974.51 1238.97" stroke="#505050" stroke-width="2"/>
<path d="M1449.52 956.282C1712.02 956.282 1712.02 1333.2 1974.51 1333.2" stroke="#505050" stroke-width="2"/>
<path d="M1449.52 956.282C1712.02 956.282 1712.02 1427.43 1974.51 1427.43" stroke="#505050" stroke-width="2"/>
<path d="M1449.52 956.282C1712.02 956.282 1712.02 1521.66 1974.51 1521.66" stroke="#505050" stroke-width="2"/>
<path d="M1449.52 1050.51C1712.02 1050.51 1712.02 579.366 1974.51 579.366" stroke="#505050" stroke-width="2"/>
<path d="M1449.52 1050.51C1712.02 1050.51 1712.02 673.595 1974.51 673.595" stroke="#505050" stroke-width="2"/>
<path d="M1449.52 1050.51C1712.02 1050.51 1712.02 767.824 1974.51 767.824" stroke="#505050" stroke-width="2"/>
<path d="M1449.52 1050.51C1712.02 1050.51 1712.02 862.053 1974.51 862.053" stroke="#505050" stroke-width="2"/>
<path d="M1449.52 1050.51C1712.02 1050.51 1712.02 956.282 1974.51 956.282" stroke="#505050" stroke-width="2"/>
<path d="M1449.52 1050.51C1712.02 1050.51 1712.02 1050.51 1974.51 1050.51" stroke="#505050" stroke-width="2"/>
<path d="M1449.52 1050.51C1712.02 1050.51 1712.02 1144.74 1974.51 1144.74" stroke="#505050" stroke-width="2"/>
<path d="M1449.52 1050.51C1712.02 1050.51 1712.02 1238.97 1974.51 1238.97" stroke="#505050" stroke-width="2"/>
<path d="M1449.52 1050.51C1712.02 1050.51 1712.02 1333.2 1974.51 1333.2" stroke="#505050" stroke-width="2"/>
<path d="M1449.52 1050.51C1712.02 1050.51 1712.02 1427.43 1974.51 1427.43" stroke="#505050" stroke-width="2"/>
<path d="M1449.52 1050.51C1712.02 1050.51 1712.02 1521.66 1974.51 1521.66" stroke="#505050" stroke-width="2"/>
<path d="M1449.52 1144.74C1712.02 1144.74 1712.02 579.366 1974.51 579.366" stroke="#505050" stroke-width="2"/>
<path d="M1449.52 1144.74C1712.02 1144.74 1712.02 673.595 1974.51 673.595" stroke="#505050" stroke-width="2"/>
<path d="M1449.52 1144.74C1712.02 1144.74 1712.02 767.824 1974.51 767.824" stroke="#505050" stroke-width="2"/>
<path d="M1449.52 1144.74C1712.02 1144.74 1712.02 862.053 1974.51 862.053" stroke="#505050" stroke-width="2"/>
<path d="M1449.52 1144.74C1712.02 1144.74 1712.02 956.282 1974.51 956.282" stroke="#505050" stroke-width="2"/>
<path d="M1449.52 1144.74C1712.02 1144.74 1712.02 1050.51 1974.51 1050.51" stroke="#505050" stroke-width="2"/>
<path d="M1449.52 1144.74C1712.02 1144.74 1712.02 1144.74 1974.51 1144.74" stroke="#505050" stroke-width="2"/>
<path d="M1449.52 1144.74C1712.02 1144.74 1712.02 1238.97 1974.51 1238.97" stroke="#505050" stroke-width="2"/>
<path d="M1449.52 1144.74C1712.02 1144.74 1712.02 1333.2 1974.51 1333.2" stroke="#505050" stroke-width="2"/>
<path d="M1449.52 1144.74C1712.02 1144.74 1712.02 1427.43 1974.51 1427.43" stroke="#505050" stroke-width="2"/>
<path d="M1449.52 1144.74C1712.02 1144.74 1712.02 1521.66 1974.51 1521.66" stroke="#505050" stroke-width="2"/>
<path d="M1449.52 1238.97C1712.02 1238.97 1712.02 579.366 1974.51 579.366" stroke="#505050" stroke-width="2"/>
<path d="M1449.52 1238.97C1712.02 1238.97 1712.02 673.595 1974.51 673.595" stroke="#505050" stroke-width="2"/>
<path d="M1449.52 1238.97C1712.02 1238.97 1712.02 767.824 1974.51 767.824" stroke="#505050" stroke-width="2"/>
<path d="M1449.52 1238.97C1712.02 1238.97 1712.02 862.053 1974.51 862.053" stroke="#505050" stroke-width="2"/>
<path d="M1449.52 1238.97C1712.02 1238.97 1712.02 956.282 1974.51 956.282" stroke="#505050" stroke-width="2"/>
<path d="M1449.52 1238.97C1712.02 1238.97 1712.02 1050.51 1974.51 1050.51" stroke="#505050" stroke-width="2"/>
<path d="M1449.52 1238.97C1712.02 1238.97 1712.02 1144.74 1974.51 1144.74" stroke="#505050" stroke-width="2"/>
<path d="M1449.52 1238.97C1712.02 1238.97 1712.02 1238.97 1974.51 1238.97" stroke="#505050" stroke-width="2"/>
<path d="M1449.52 1238.97C1712.02 1238.97 1712.02 1333.2 1974.51 1333.2" stroke="#505050" stroke-width="2"/>
<path d="M1449.52 1238.97C1712.02 1238.97 1712.02 1427.43 1974.51 1427.43" stroke="#505050" stroke-width="2"/>
<path d="M1449.52 1238.97C1712.02 1238.97 1712.02 1521.66 1974.51 1521.66" stroke="#505050" stroke-width="2"/>
<path d="M1449.52 1333.2C1712.02 1333.2 1712.02 579.366 1974.51 579.366" stroke="#505050" stroke-width="2"/>
<path d="M1449.52 1333.2C1712.02 1333.2 1712.02 673.595 1974.51 673.595" stroke="#505050" stroke-width="2"/>
<path d="M1449.52 1333.2C1712.02 1333.2 1712.02 767.824 1974.51 767.824" stroke="#505050" stroke-width="2"/>
<path d="M1449.52 1333.2C1712.02 1333.2 1712.02 862.053 1974.51 862.053" stroke="#505050" stroke-width="2"/>
<path d="M1449.52 1333.2C1712.02 1333.2 1712.02 956.282 1974.51 956.282" stroke="#505050" stroke-width="2"/>
<path d="M1449.52 1333.2C1712.02 1333.2 1712.02 1050.51 1974.51 1050.51" stroke="#505050" stroke-width="2"/>
<path d="M1449.52 1333.2C1712.02 1333.2 1712.02 1144.74 1974.51 1144.74" stroke="#505050" stroke-width="2"/>
<path d="M1449.52 1333.2C1712.02 1333.2 1712.02 1238.97 1974.51 1238.97" stroke="#505050" stroke-width="2"/>
<path d="M1449.52 1333.2C1712.02 1333.2 1712.02 1333.2 1974.51 1333.2" stroke="#505050" stroke-width="2"/>
<path d="M1449.52 1333.2C1712.02 1333.2 1712.02 1427.43 1974.51 1427.43" stroke="#505050" stroke-width="2"/>
<path d="M1449.52 1333.2C1712.02 1333.2 1712.02 1521.66 1974.51 1521.66" stroke="#505050" stroke-width="2"/>
<path d="M1449.52 1427.43C1712.02 1427.43 1712.02 579.366 1974.51 579.366" stroke="#505050" stroke-width="2"/>
<path d="M1449.52 1427.43C1712.02 1427.43 1712.02 673.595 1974.51 673.595" stroke="#505050" stroke-width="2"/>
<path d="M1449.52 1427.43C1712.02 1427.43 1712.02 767.824 1974.51 767.824" stroke="#505050" stroke-width="2"/>
<path d="M1449.52 1427.43C1712.02 1427.43 1712.02 862.053 1974.51 862.053" stroke="#505050" stroke-width="2"/>
<path d="M1449.52 1427.43C1712.02 1427.43 1712.02 956.282 1974.51 956.282" stroke="#505050" stroke-width="2"/>
<path d="M1449.52 1427.43C1712.02 1427.43 1712.02 1050.51 1974.51 1050.51" stroke="#505050" stroke-width="2"/>
<path d="M1449.52 1427.43C1712.02 1427.43 1712.02 1144.74 1974.51 1144.74" stroke="#505050" stroke-width="2"/>
<path d="M1449.52 1427.43C1712.02 1427.43 1712.02 1238.97 1974.51 1238.97" stroke="#505050" stroke-width="2"/>
<path d="M1449.52 1427.43C1712.02 1427.43 1712.02 1333.2 1974.51 1333.2" stroke="#505050" stroke-width="2"/>
<path d="M1449.52 1427.43C1712.02 1427.43 1712.02 1427.43 1974.51 1427.43" stroke="#505050" stroke-width="2"/>
<path d="M1449.52 1427.43C1712.02 1427.43 1712.02 1521.66 1974.51 1521.66" stroke="#505050" stroke-width="2"/>
<path d="M1449.52 1521.66C1712.02 1521.66 1712.02 579.366 1974.51 579.366" stroke="#505050" stroke-width="2"/>
<path d="M1449.52 1521.66C1712.02 1521.66 1712.02 673.595 1974.51 673.595" stroke="#505050" stroke-width="2"/>
<path d="M1449.52 1521.66C1712.02 1521.66 1712.02 767.824 1974.51 767.824" stroke="#505050" stroke-width="2"/>
<path d="M1449.52 1521.66C1712.02 1521.66 1712.02 862.053 1974.51 862.053" stroke="#505050" stroke-width="2"/>
<path d="M1449.52 1521.66C1712.02 1521.66 1712.02 956.282 1974.51 956.282" stroke="#505050" stroke-width="2"/>
<path d="M1449.52 1521.66C1712.02 1521.66 1712.02 1050.51 1974.51 1050.51" stroke="#505050" stroke-width="2"/>
<path d="M1449.52 1521.66C1712.02 1521.66 1712.02 1144.74 1974.51 1144.74" stroke="#505050" stroke-width="2"/>
<path d="M1449.52 1521.66C1712.02 1521.66 1712.02 1238.97 1974.51 1238.97" stroke="#505050" stroke-width="2"/>
<path d="M1449.52 1521.66C1712.02 1521.66 1712.02 1333.2 1974.51 1333.2" stroke="#505050" stroke-width="2"/>
<path d="M1449.52 1521.66C1712.02 1521.66 1712.02 1427.43 1974.51 1427.43" stroke="#505050" stroke-width="2"/>
<path d="M1449.52 1521.66C1712.02 1521.66 1712.02 1521.66 1974.51 1521.66" stroke="#505050" stroke-width="2"/>
<path d="M1449.52 1615.88C1712.02 1615.88 1712.02 579.366 1974.51 579.366" stroke="#505050" stroke-width="2"/>
<path d="M1449.52 1615.88C1712.02 1615.88 1712.02 673.595 1974.51 673.595" stroke="#505050" stroke-width="2"/>
<path d="M1449.52 1615.88C1712.02 1615.88 1712.02 767.824 1974.51 767.824" stroke="#505050" stroke-width="2"/>
<path d="M1449.52 1615.88C1712.02 1615.88 1712.02 862.053 1974.51 862.053" stroke="#505050" stroke-width="2"/>
<path d="M1449.52 1615.88C1712.02 1615.88 1712.02 956.282 1974.51 956.282" stroke="#505050" stroke-width="2"/>
<path d="M1449.52 1615.88C1712.02 1615.88 1712.02 1050.51 1974.51 1050.51" stroke="#505050" stroke-width="2"/>
<path d="M1449.52 1615.88C1712.02 1615.88 1712.02 1144.74 1974.51 1144.74" stroke="#505050" stroke-width="2"/>
<path d="M1449.52 1615.88C1712.02 1615.88 1712.02 1238.97 1974.51 1238.97" stroke="#505050" stroke-width="2"/>
<path d="M1449.52 1615.88C1712.02 1615.88 1712.02 1333.2 1974.51 1333.2" stroke="#505050" stroke-width="2"/>
<path d="M1449.52 1615.88C1712.02 1615.88 1712.02 1427.43 1974.51 1427.43" stroke="#505050" stroke-width="2"/>
<path d="M1449.52 1615.88C1712.02 1615.88 1712.02 1521.66 1974.51 1521.66" stroke="#505050" stroke-width="2"/>
<path d="M1449.52 1710.11C1712.02 1710.11 1712.02 579.366 1974.51 579.366" stroke="#505050" stroke-width="2"/>
<path d="M1449.52 1710.11C1712.02 1710.11 1712.02 673.595 1974.51 673.595" stroke="#505050" stroke-width="2"/>
<path d="M1449.52 1710.11C1712.02 1710.11 1712.02 767.824 1974.51 767.824" stroke="#505050" stroke-width="2"/>
<path d="M1449.52 1710.11C1712.02 1710.11 1712.02 862.053 1974.51 862.053" stroke="#505050" stroke-width="2"/>
<path d="M1449.52 1710.11C1712.02 1710.11 1712.02 956.282 1974.51 956.282" stroke="#505050" stroke-width="2"/>
<path d="M1449.52 1710.11C1712.02 1710.11 1712.02 1050.51 1974.51 1050.51" stroke="#505050" stroke-width="2"/>
<path d="M1449.52 1710.11C1712.02 1710.11 1712.02 1144.74 1974.51 1144.74" stroke="#505050" stroke-width="2"/>
<path d="M1449.52 1710.11C1712.02 1710.11 1712.02 1238.97 1974.51 1238.97" stroke="#505050" stroke-width="2"/>
<path d="M1449.52 1710.11C1712.02 1710.11 1712.02 1333.2 1974.51 1333.2" stroke="#505050" stroke-width="2"/>
<path d="M1449.52 1710.11C1712.02 1710.11 1712.02 1427.43 1974.51 1427.43" stroke="#505050" stroke-width="2"/>
<path d="M1449.52 1710.11C1712.02 1710.11 1712.02 1521.66 1974.51 1521.66" stroke="#505050" stroke-width="2"/>
<path d="M1974.51 485.137C2237.01 485.137 2237.01 767.824 2499.5 767.824" stroke="#505050" stroke-width="2"/>
<path d="M1974.51 485.137C2237.01 485.137 2237.01 862.053 2499.5 862.053" stroke="#505050" stroke-width="2"/>
<path d="M1974.51 485.137C2237.01 485.137 2237.01 956.282 2499.5 956.282" stroke="#505050" stroke-width="2"/>
<path d="M1974.51 485.137C2237.01 485.137 2237.01 1050.51 2499.5 1050.51" stroke="#505050" stroke-width="2"/>
<path d="M1974.51 485.137C2237.01 485.137 2237.01 1144.74 2499.5 1144.74" stroke="#505050" stroke-width="2"/>
<path d="M1974.51 485.137C2237.01 485.137 2237.01 1238.97 2499.5 1238.97" stroke="#505050" stroke-width="2"/>
<path d="M1974.51 485.137C2237.01 485.137 2237.01 1333.2 2499.5 1333.2" stroke="#505050" stroke-width="2"/>
<path d="M1974.51 485.137C2237.01 485.137 2237.01 1427.43 2499.5 1427.43" stroke="#505050" stroke-width="2"/>
<path d="M1974.51 485.137C2237.01 485.137 2237.01 1521.66 2499.5 1521.66" stroke="#505050" stroke-width="2"/>
<path d="M1974.51 579.366C2237.01 579.366 2237.01 767.824 2499.5 767.824" stroke="#505050" stroke-width="2"/>
<path d="M1974.51 579.366C2237.01 579.366 2237.01 862.053 2499.5 862.053" stroke="#505050" stroke-width="2"/>
<path d="M1974.51 579.366C2237.01 579.366 2237.01 956.282 2499.5 956.282" stroke="#505050" stroke-width="2"/>
<path d="M1974.51 579.366C2237.01 579.366 2237.01 1050.51 2499.5 1050.51" stroke="#505050" stroke-width="2"/>
<path d="M1974.51 579.366C2237.01 579.366 2237.01 1144.74 2499.5 1144.74" stroke="#505050" stroke-width="2"/>
<path d="M1974.51 579.366C2237.01 579.366 2237.01 1238.97 2499.5 1238.97" stroke="#505050" stroke-width="2"/>
<path d="M1974.51 579.366C2237.01 579.366 2237.01 1333.2 2499.5 1333.2" stroke="#505050" stroke-width="2"/>
<path d="M1974.51 579.366C2237.01 579.366 2237.01 1427.43 2499.5 1427.43" stroke="#505050" stroke-width="2"/>
<path d="M1974.51 579.366C2237.01 579.366 2237.01 1521.66 2499.5 1521.66" stroke="#505050" stroke-width="2"/>
<path d="M1974.51 673.595C2237.01 673.595 2237.01 767.824 2499.5 767.824" stroke="#505050" stroke-width="2"/>
<path d="M1974.51 673.595C2237.01 673.595 2237.01 862.053 2499.5 862.053" stroke="#505050" stroke-width="2"/>
<path d="M1974.51 673.595C2237.01 673.595 2237.01 956.282 2499.5 956.282" stroke="#505050" stroke-width="2"/>
<path d="M1974.51 673.595C2237.01 673.595 2237.01 1050.51 2499.5 1050.51" stroke="#505050" stroke-width="2"/>
<path d="M1974.51 673.595C2237.01 673.595 2237.01 1144.74 2499.5 1144.74" stroke="#505050" stroke-width="2"/>
<path d="M1974.51 673.595C2237.01 673.595 2237.01 1238.97 2499.5 1238.97" stroke="#505050" stroke-width="2"/>
<path d="M1974.51 673.595C2237.01 673.595 2237.01 1333.2 2499.5 1333.2" stroke="#505050" stroke-width="2"/>
<path d="M1974.51 673.595C2237.01 673.595 2237.01 1427.43 2499.5 1427.43" stroke="#505050" stroke-width="2"/>
<path d="M1974.51 673.595C2237.01 673.595 2237.01 1521.66 2499.5 1521.66" stroke="#505050" stroke-width="2"/>
<path d="M1974.51 767.824C2237.01 767.824 2237.01 767.824 2499.5 767.824" stroke="#505050" stroke-width="2"/>
<path d="M1974.51 767.824C2237.01 767.824 2237.01 862.053 2499.5 862.053" stroke="#505050" stroke-width="2"/>
<path d="M1974.51 767.824C2237.01 767.824 2237.01 956.282 2499.5 956.282" stroke="#505050" stroke-width="2"/>
<path d="M1974.51 767.824C2237.01 767.824 2237.01 1050.51 2499.5 1050.51" stroke="#505050" stroke-width="2"/>
<path d="M1974.51 767.824C2237.01 767.824 2237.01 1144.74 2499.5 1144.74" stroke="#505050" stroke-width="2"/>
<path d="M1974.51 767.824C2237.01 767.824 2237.01 1238.97 2499.5 1238.97" stroke="#505050" stroke-width="2"/>
<path d="M1974.51 767.824C2237.01 767.824 2237.01 1333.2 2499.5 1333.2" stroke="#505050" stroke-width="2"/>
<path d="M1974.51 767.824C2237.01 767.824 2237.01 1427.43 2499.5 1427.43" stroke="#505050" stroke-width="2"/>
<path d="M1974.51 767.824C2237.01 767.824 2237.01 1521.66 2499.5 1521.66" stroke="#505050" stroke-width="2"/>
<path d="M1974.51 862.053C2237.01 862.053 2237.01 767.824 2499.5 767.824" stroke="#505050" stroke-width="2"/>
<path d="M1974.51 862.053C2237.01 862.053 2237.01 862.053 2499.5 862.053" stroke="#505050" stroke-width="2"/>
<path d="M1974.51 862.053C2237.01 862.053 2237.01 956.282 2499.5 956.282" stroke="#505050" stroke-width="2"/>
<path d="M1974.51 862.053C2237.01 862.053 2237.01 1050.51 2499.5 1050.51" stroke="#505050" stroke-width="2"/>
<path d="M1974.51 862.053C2237.01 862.053 2237.01 1144.74 2499.5 1144.74" stroke="#505050" stroke-width="2"/>
<path d="M1974.51 862.053C2237.01 862.053 2237.01 1238.97 2499.5 1238.97" stroke="#505050" stroke-width="2"/>
<path d="M1974.51 862.053C2237.01 862.053 2237.01 1333.2 2499.5 1333.2" stroke="#505050" stroke-width="2"/>
<path d="M1974.51 862.053C2237.01 862.053 2237.01 1427.43 2499.5 1427.43" stroke="#505050" stroke-width="2"/>
<path d="M1974.51 862.053C2237.01 862.053 2237.01 1521.66 2499.5 1521.66" stroke="#505050" stroke-width="2"/>
<path d="M1974.51 956.282C2237.01 956.282 2237.01 767.824 2499.5 767.824" stroke="#505050" stroke-width="2"/>
<path d="M1974.51 956.282C2237.01 956.282 2237.01 862.053 2499.5 862.053" stroke="#505050" stroke-width="2"/>
<path d="M1974.51 956.282C2237.01 956.282 2237.01 956.282 2499.5 956.282" stroke="#505050" stroke-width="2"/>
<path d="M1974.51 956.282C2237.01 956.282 2237.01 1050.51 2499.5 1050.51" stroke="#505050" stroke-width="2"/>
<path d="M1974.51 956.282C2237.01 956.282 2237.01 1144.74 2499.5 1144.74" stroke="#505050" stroke-width="2"/>
<path d="M1974.51 956.282C2237.01 956.282 2237.01 1238.97 2499.5 1238.97" stroke="#505050" stroke-width="2"/>
<path d="M1974.51 956.282C2237.01 956.282 2237.01 1333.2 2499.5 1333.2" stroke="#505050" stroke-width="2"/>
<path d="M1974.51 956.282C2237.01 956.282 2237.01 1427.43 2499.5 1427.43" stroke="#505050" stroke-width="2"/>
<path d="M1974.51 956.282C2237.01 956.282 2237.01 1521.66 2499.5 1521.66" stroke="#505050" stroke-width="2"/>
<path d="M1974.51 1050.51C2237.01 1050.51 2237.01 767.824 2499.5 767.824" stroke="#505050" stroke-width="2"/>
<path d="M1974.51 1050.51C2237.01 1050.51 2237.01 862.053 2499.5 862.053" stroke="#505050" stroke-width="2"/>
<path d="M1974.51 1050.51C2237.01 1050.51 2237.01 956.282 2499.5 956.282" stroke="#505050" stroke-width="2"/>
<path d="M1974.51 1050.51C2237.01 1050.51 2237.01 1050.51 2499.5 1050.51" stroke="#505050" stroke-width="2"/>
<path d="M1974.51 1050.51C2237.01 1050.51 2237.01 1144.74 2499.5 1144.74" stroke="#505050" stroke-width="2"/>
<path d="M1974.51 1050.51C2237.01 1050.51 2237.01 1238.97 2499.5 1238.97" stroke="#505050" stroke-width="2"/>
<path d="M1974.51 1050.51C2237.01 1050.51 2237.01 1333.2 2499.5 1333.2" stroke="#505050" stroke-width="2"/>
<path d="M1974.51 1050.51C2237.01 1050.51 2237.01 1427.43 2499.5 1427.43" stroke="#505050" stroke-width="2"/>
<path d="M1974.51 1050.51C2237.01 1050.51 2237.01 1521.66 2499.5 1521.66" stroke="#505050" stroke-width="2"/>
<path d="M1974.51 1144.74C2237.01 1144.74 2237.01 767.824 2499.5 767.824" stroke="#505050" stroke-width="2"/>
<path d="M1974.51 1144.74C2237.01 1144.74 2237.01 862.053 2499.5 862.053" stroke="#505050" stroke-width="2"/>
<path d="M1974.51 1144.74C2237.01 1144.74 2237.01 956.282 2499.5 956.282" stroke="#505050" stroke-width="2"/>
<path d="M1974.51 1144.74C2237.01 1144.74 2237.01 1050.51 2499.5 1050.51" stroke="#505050" stroke-width="2"/>
<path d="M1974.51 1144.74C2237.01 1144.74 2237.01 1144.74 2499.5 1144.74" stroke="#505050" stroke-width="2"/>
<path d="M1974.51 1144.74C2237.01 1144.74 2237.01 1238.97 2499.5 1238.97" stroke="#505050" stroke-width="2"/>
<path d="M1974.51 1144.74C2237.01 1144.74 2237.01 1333.2 2499.5 1333.2" stroke="#505050" stroke-width="2"/>
<path d="M1974.51 1144.74C2237.01 1144.74 2237.01 1427.43 2499.5 1427.43" stroke="#505050" stroke-width="2"/>
<path d="M1974.51 1144.74C2237.01 1144.74 2237.01 1521.66 2499.5 1521.66" stroke="#505050" stroke-width="2"/>
<path d="M1974.51 1238.97C2237.01 1238.97 2237.01 767.824 2499.5 767.824" stroke="#505050" stroke-width="2"/>
<path d="M1974.51 1238.97C2237.01 1238.97 2237.01 862.053 2499.5 862.053" stroke="#505050" stroke-width="2"/>
<path d="M1974.51 1238.97C2237.01 1238.97 2237.01 956.282 2499.5 956.282" stroke="#505050" stroke-width="2"/>
<path d="M1974.51 1238.97C2237.01 1238.97 2237.01 1050.51 2499.5 1050.51" stroke="#505050" stroke-width="2"/>
<path d="M1974.51 1238.97C2237.01 1238.97 2237.01 1144.74 2499.5 1144.74" stroke="#505050" stroke-width="2"/>
<path d="M1974.51 1238.97C2237.01 1238.97 2237.01 1238.97 2499.5 1238.97" stroke="#505050" stroke-width="2"/>
<path d="M1974.51 1238.97C2237.01 1238.97 2237.01 1333.2 2499.5 1333.2" stroke="#505050" stroke-width="2"/>
<path d="M1974.51 1238.97C2237.01 1238.97 2237.01 1427.43 2499.5 1427.43" stroke="#505050" stroke-width="2"/>
<path d="M1974.51 1238.97C2237.01 1238.97 2237.01 1521.66 2499.5 1521.66" stroke="#505050" stroke-width="2"/>
<path d="M1974.51 1333.2C2237.01 1333.2 2237.01 767.824 2499.5 767.824" stroke="#505050" stroke-width="2"/>
<path d="M1974.51 1333.2C2237.01 1333.2 2237.01 862.053 2499.5 862.053" stroke="#505050" stroke-width="2"/>
<path d="M1974.51 1333.2C2237.01 1333.2 2237.01 956.282 2499.5 956.282" stroke="#505050" stroke-width="2"/>
<path d="M1974.51 1333.2C2237.01 1333.2 2237.01 1050.51 2499.5 1050.51" stroke="#505050" stroke-width="2"/>
<path d="M1974.51 1333.2C2237.01 1333.2 2237.01 1144.74 2499.5 1144.74" stroke="#505050" stroke-width="2"/>
<path d="M1974.51 1333.2C2237.01 1333.2 2237.01 1238.97 2499.5 1238.97" stroke="#505050" stroke-width="2"/>
<path d="M1974.51 1333.2C2237.01 1333.2 2237.01 1333.2 2499.5 1333.2" stroke="#505050" stroke-width="2"/>
<path d="M1974.51 1333.2C2237.01 1333.2 2237.01 1427.43 2499.5 1427.43" stroke="#505050" stroke-width="2"/>
<path d="M1974.51 1333.2C2237.01 1333.2 2237.01 1521.66 2499.5 1521.66" stroke="#505050" stroke-width="2"/>
<path d="M1974.51 1427.43C2237.01 1427.43 2237.01 767.824 2499.5 767.824" stroke="#505050" stroke-width="2"/>
<path d="M1974.51 1427.43C2237.01 1427.43 2237.01 862.053 2499.5 862.053" stroke="#505050" stroke-width="2"/>
<path d="M1974.51 1427.43C2237.01 1427.43 2237.01 956.282 2499.5 956.282" stroke="#505050" stroke-width="2"/>
<path d="M1974.51 1427.43C2237.01 1427.43 2237.01 1050.51 2499.5 1050.51" stroke="#505050" stroke-width="2"/>
<path d="M1974.51 1427.43C2237.01 1427.43 2237.01 1144.74 2499.5 1144.74" stroke="#505050" stroke-width="2"/>
<path d="M1974.51 1427.43C2237.01 1427.43 2237.01 1238.97 2499.5 1238.97" stroke="#505050" stroke-width="2"/>
<path d="M1974.51 1427.43C2237.01 1427.43 2237.01 1333.2 2499.5 1333.2" stroke="#505050" stroke-width="2"/>
<path d="M1974.51 1427.43C2237.01 1427.43 2237.01 1427.43 2499.5 1427.43" stroke="#505050" stroke-width="2"/>
<path d="M1974.51 1427.43C2237.01 1427.43 2237.01 1521.66 2499.5 1521.66" stroke="#505050" stroke-width="2"/>
<path d="M1974.51 1521.66C2237.01 1521.66 2237.01 767.824 2499.5 767.824" stroke="#505050" stroke-width="2"/>
<path d="M1974.51 1521.66C2237.01 1521.66 2237.01 862.053 2499.5 862.053" stroke="#505050" stroke-width="2"/>
<path d="M1974.51 1521.66C2237.01 1521.66 2237.01 956.282 2499.5 956.282" stroke="#505050" stroke-width="2"/>
<path d="M1974.51 1521.66C2237.01 1521.66 2237.01 1050.51 2499.5 1050.51" stroke="#505050" stroke-width="2"/>
<path d="M1974.51 1521.66C2237.01 1521.66 2237.01 1144.74 2499.5 1144.74" stroke="#505050" stroke-width="2"/>
<path d="M1974.51 1521.66C2237.01 1521.66 2237.01 1238.97 2499.5 1238.97" stroke="#505050" stroke-width="2"/>
<path d="M1974.51 1521.66C2237.01 1521.66 2237.01 1333.2 2499.5 1333.2" stroke="#505050" stroke-width="2"/>
<path d="M1974.51 1521.66C2237.01 1521.66 2237.01 1427.43 2499.5 1427.43" stroke="#505050" stroke-width="2"/>
<path d="M1974.51 1521.66C2237.01 1521.66 2237.01 1521.66 2499.5 1521.66" stroke="#505050" stroke-width="2"/>
<path d="M1449.52 1804.34C1712.02 1804.34 1712.02 579.366 1974.51 579.366" stroke="#505050" stroke-width="2"/>
<path d="M1449.52 1804.34C1712.02 1804.34 1712.02 673.595 1974.51 673.595" stroke="#505050" stroke-width="2"/>
<path d="M1449.52 1804.34C1712.02 1804.34 1712.02 767.824 1974.51 767.824" stroke="#505050" stroke-width="2"/>
<path d="M1449.52 1804.34C1712.02 1804.34 1712.02 862.053 1974.51 862.053" stroke="#505050" stroke-width="2"/>
<path d="M1449.52 1804.34C1712.02 1804.34 1712.02 956.282 1974.51 956.282" stroke="#505050" stroke-width="2"/>
<path d="M1449.52 1804.34C1712.02 1804.34 1712.02 1050.51 1974.51 1050.51" stroke="#505050" stroke-width="2"/>
<path d="M1449.52 1804.34C1712.02 1804.34 1712.02 1144.74 1974.51 1144.74" stroke="#505050" stroke-width="2"/>
<path d="M1449.52 1804.34C1712.02 1804.34 1712.02 1238.97 1974.51 1238.97" stroke="#505050" stroke-width="2"/>
<path d="M1449.52 1804.34C1712.02 1804.34 1712.02 1333.2 1974.51 1333.2" stroke="#505050" stroke-width="2"/>
<path d="M1449.52 1804.34C1712.02 1804.34 1712.02 1427.43 1974.51 1427.43" stroke="#505050" stroke-width="2"/>
<path d="M1449.52 1804.34C1712.02 1804.34 1712.02 1521.66 1974.51 1521.66" stroke="#505050" stroke-width="2"/>
<path d="M1449.52 1898.57C1712.02 1898.57 1712.02 579.366 1974.51 579.366" stroke="#505050" stroke-width="2"/>
<path d="M1449.52 1898.57C1712.02 1898.57 1712.02 673.595 1974.51 673.595" stroke="#505050" stroke-width="2"/>
<path d="M1449.52 1898.57C1712.02 1898.57 1712.02 767.824 1974.51 767.824" stroke="#505050" stroke-width="2"/>
<path d="M1449.52 1898.57C1712.02 1898.57 1712.02 862.053 1974.51 862.053" stroke="#505050" stroke-width="2"/>
<path d="M1449.52 1898.57C1712.02 1898.57 1712.02 956.282 1974.51 956.282" stroke="#505050" stroke-width="2"/>
<path d="M1449.52 1898.57C1712.02 1898.57 1712.02 1050.51 1974.51 1050.51" stroke="#505050" stroke-width="2"/>
<path d="M1449.52 1898.57C1712.02 1898.57 1712.02 1144.74 1974.51 1144.74" stroke="#505050" stroke-width="2"/>
<path d="M1449.52 1898.57C1712.02 1898.57 1712.02 1238.97 1974.51 1238.97" stroke="#505050" stroke-width="2"/>
<path d="M1449.52 1898.57C1712.02 1898.57 1712.02 1333.2 1974.51 1333.2" stroke="#505050" stroke-width="2"/>
<path d="M1449.52 1898.57C1712.02 1898.57 1712.02 1427.43 1974.51 1427.43" stroke="#505050" stroke-width="2"/>
<path d="M1449.52 1898.57C1712.02 1898.57 1712.02 1521.66 1974.51 1521.66" stroke="#505050" stroke-width="2"/>
<path d="M1449.52 1992.8C1712.02 1992.8 1712.02 579.366 1974.51 579.366" stroke="#505050" stroke-width="2"/>
<path d="M1449.52 1992.8C1712.02 1992.8 1712.02 673.595 1974.51 673.595" stroke="#505050" stroke-width="2"/>
<path d="M1449.52 1992.8C1712.02 1992.8 1712.02 767.824 1974.51 767.824" stroke="#505050" stroke-width="2"/>
<path d="M1449.52 1992.8C1712.02 1992.8 1712.02 862.053 1974.51 862.053" stroke="#505050" stroke-width="2"/>
<path d="M1449.52 1992.8C1712.02 1992.8 1712.02 956.282 1974.51 956.282" stroke="#505050" stroke-width="2"/>
<path d="M1449.52 1992.8C1712.02 1992.8 1712.02 1050.51 1974.51 1050.51" stroke="#505050" stroke-width="2"/>
<path d="M1449.52 1992.8C1712.02 1992.8 1712.02 1144.74 1974.51 1144.74" stroke="#505050" stroke-width="2"/>
<path d="M1449.52 1992.8C1712.02 1992.8 1712.02 1238.97 1974.51 1238.97" stroke="#505050" stroke-width="2"/>
<path d="M1449.52 1992.8C1712.02 1992.8 1712.02 1333.2 1974.51 1333.2" stroke="#505050" stroke-width="2"/>
<path d="M1449.52 1992.8C1712.02 1992.8 1712.02 1427.43 1974.51 1427.43" stroke="#505050" stroke-width="2"/>
<path d="M1449.52 1992.8C1712.02 1992.8 1712.02 1521.66 1974.51 1521.66" stroke="#505050" stroke-width="2"/>
<path d="M1449.52 2087.03C1712.02 2087.03 1712.02 579.366 1974.51 579.366" stroke="#505050" stroke-width="2"/>
<path d="M1449.52 2087.03C1712.02 2087.03 1712.02 673.595 1974.51 673.595" stroke="#505050" stroke-width="2"/>
<path d="M1449.52 2087.03C1712.02 2087.03 1712.02 767.824 1974.51 767.824" stroke="#505050" stroke-width="2"/>
<path d="M1449.52 2087.03C1712.02 2087.03 1712.02 862.053 1974.51 862.053" stroke="#505050" stroke-width="2"/>
<path d="M1449.52 2087.03C1712.02 2087.03 1712.02 956.282 1974.51 956.282" stroke="#505050" stroke-width="2"/>
<path d="M1449.52 2087.03C1712.02 2087.03 1712.02 1050.51 1974.51 1050.51" stroke="#505050" stroke-width="2"/>
<path d="M1449.52 2087.03C1712.02 2087.03 1712.02 1144.74 1974.51 1144.74" stroke="#505050" stroke-width="2"/>
<path d="M1449.52 2087.03C1712.02 2087.03 1712.02 1238.97 1974.51 1238.97" stroke="#505050" stroke-width="2"/>
<path d="M1449.52 2087.03C1712.02 2087.03 1712.02 1333.2 1974.51 1333.2" stroke="#505050" stroke-width="2"/>
<path d="M1449.52 2087.03C1712.02 2087.03 1712.02 1427.43 1974.51 1427.43" stroke="#505050" stroke-width="2"/>
<path d="M1449.52 2087.03C1712.02 2087.03 1712.02 1521.66 1974.51 1521.66" stroke="#505050" stroke-width="2"/>
<path d="M1449.52 296.679C1712.02 296.679 1712.02 1615.88 1974.51 1615.88" stroke="#505050" stroke-width="2"/>
<path d="M1449.52 296.679C1712.02 296.679 1712.02 1710.11 1974.51 1710.11" stroke="#505050" stroke-width="2"/>
<path d="M1449.52 296.679C1712.02 296.679 1712.02 1804.34 1974.51 1804.34" stroke="#505050" stroke-width="2"/>
<path d="M1449.52 296.679C1712.02 296.679 1712.02 1898.57 1974.51 1898.57" stroke="#505050" stroke-width="2"/>
<path d="M1449.52 390.908C1712.02 390.908 1712.02 1615.88 1974.51 1615.88" stroke="#505050" stroke-width="2"/>
<path d="M1449.52 390.908C1712.02 390.908 1712.02 1710.11 1974.51 1710.11" stroke="#505050" stroke-width="2"/>
<path d="M1449.52 390.908C1712.02 390.908 1712.02 1804.34 1974.51 1804.34" stroke="#505050" stroke-width="2"/>
<path d="M1449.52 390.908C1712.02 390.908 1712.02 1898.57 1974.51 1898.57" stroke="#505050" stroke-width="2"/>
<path d="M1449.52 485.137C1712.02 485.137 1712.02 1615.88 1974.51 1615.88" stroke="#505050" stroke-width="2"/>
<path d="M1449.52 485.137C1712.02 485.137 1712.02 1710.11 1974.51 1710.11" stroke="#505050" stroke-width="2"/>
<path d="M1449.52 485.137C1712.02 485.137 1712.02 1804.34 1974.51 1804.34" stroke="#505050" stroke-width="2"/>
<path d="M1449.52 485.137C1712.02 485.137 1712.02 1898.57 1974.51 1898.57" stroke="#505050" stroke-width="2"/>
<path d="M1449.52 579.366C1712.02 579.366 1712.02 1615.88 1974.51 1615.88" stroke="#505050" stroke-width="2"/>
<path d="M1449.52 579.366C1712.02 579.366 1712.02 1710.11 1974.51 1710.11" stroke="#505050" stroke-width="2"/>
<path d="M1449.52 579.366C1712.02 579.366 1712.02 1804.34 1974.51 1804.34" stroke="#505050" stroke-width="2"/>
<path d="M1449.52 579.366C1712.02 579.366 1712.02 1898.57 1974.51 1898.57" stroke="#505050" stroke-width="2"/>
<path d="M1449.52 673.595C1712.02 673.595 1712.02 1615.88 1974.51 1615.88" stroke="#505050" stroke-width="2"/>
<path d="M1449.52 673.595C1712.02 673.595 1712.02 1710.11 1974.51 1710.11" stroke="#505050" stroke-width="2"/>
<path d="M1449.52 673.595C1712.02 673.595 1712.02 1804.34 1974.51 1804.34" stroke="#505050" stroke-width="2"/>
<path d="M1449.52 673.595C1712.02 673.595 1712.02 1898.57 1974.51 1898.57" stroke="#505050" stroke-width="2"/>
<path d="M1449.52 767.824C1712.02 767.824 1712.02 1615.88 1974.51 1615.88" stroke="#505050" stroke-width="2"/>
<path d="M1449.52 767.824C1712.02 767.824 1712.02 1710.11 1974.51 1710.11" stroke="#505050" stroke-width="2"/>
<path d="M1449.52 767.824C1712.02 767.824 1712.02 1804.34 1974.51 1804.34" stroke="#505050" stroke-width="2"/>
<path d="M1449.52 767.824C1712.02 767.824 1712.02 1898.57 1974.51 1898.57" stroke="#505050" stroke-width="2"/>
<path d="M1449.52 862.053C1712.02 862.053 1712.02 1615.88 1974.51 1615.88" stroke="#505050" stroke-width="2"/>
<path d="M1449.52 862.053C1712.02 862.053 1712.02 1710.11 1974.51 1710.11" stroke="#505050" stroke-width="2"/>
<path d="M1449.52 862.053C1712.02 862.053 1712.02 1804.34 1974.51 1804.34" stroke="#505050" stroke-width="2"/>
<path d="M1449.52 862.053C1712.02 862.053 1712.02 1898.57 1974.51 1898.57" stroke="#505050" stroke-width="2"/>
<path d="M1449.52 956.282C1712.02 956.282 1712.02 1615.88 1974.51 1615.88" stroke="#505050" stroke-width="2"/>
<path d="M1449.52 956.282C1712.02 956.282 1712.02 1710.11 1974.51 1710.11" stroke="#505050" stroke-width="2"/>
<path d="M1449.52 956.282C1712.02 956.282 1712.02 1804.34 1974.51 1804.34" stroke="#505050" stroke-width="2"/>
<path d="M1449.52 956.282C1712.02 956.282 1712.02 1898.57 1974.51 1898.57" stroke="#505050" stroke-width="2"/>
<path d="M1449.52 1050.51C1712.02 1050.51 1712.02 1615.88 1974.51 1615.88" stroke="#505050" stroke-width="2"/>
<path d="M1449.52 1050.51C1712.02 1050.51 1712.02 1710.11 1974.51 1710.11" stroke="#505050" stroke-width="2"/>
<path d="M1449.52 1050.51C1712.02 1050.51 1712.02 1804.34 1974.51 1804.34" stroke="#505050" stroke-width="2"/>
<path d="M1449.52 1050.51C1712.02 1050.51 1712.02 1898.57 1974.51 1898.57" stroke="#505050" stroke-width="2"/>
<path d="M1449.52 1144.74C1712.02 1144.74 1712.02 1615.88 1974.51 1615.88" stroke="#505050" stroke-width="2"/>
<path d="M1449.52 1144.74C1712.02 1144.74 1712.02 1710.11 1974.51 1710.11" stroke="#505050" stroke-width="2"/>
<path d="M1449.52 1144.74C1712.02 1144.74 1712.02 1804.34 1974.51 1804.34" stroke="#505050" stroke-width="2"/>
<path d="M1449.52 1144.74C1712.02 1144.74 1712.02 1898.57 1974.51 1898.57" stroke="#505050" stroke-width="2"/>
<path d="M1449.52 1238.97C1712.02 1238.97 1712.02 1615.88 1974.51 1615.88" stroke="#505050" stroke-width="2"/>
<path d="M1449.52 1238.97C1712.02 1238.97 1712.02 1710.11 1974.51 1710.11" stroke="#505050" stroke-width="2"/>
<path d="M1449.52 1238.97C1712.02 1238.97 1712.02 1804.34 1974.51 1804.34" stroke="#505050" stroke-width="2"/>
<path d="M1449.52 1238.97C1712.02 1238.97 1712.02 1898.57 1974.51 1898.57" stroke="#505050" stroke-width="2"/>
<path d="M1449.52 1333.2C1712.02 1333.2 1712.02 1615.88 1974.51 1615.88" stroke="#505050" stroke-width="2"/>
<path d="M1449.52 1333.2C1712.02 1333.2 1712.02 1710.11 1974.51 1710.11" stroke="#505050" stroke-width="2"/>
<path d="M1449.52 1333.2C1712.02 1333.2 1712.02 1804.34 1974.51 1804.34" stroke="#505050" stroke-width="2"/>
<path d="M1449.52 1333.2C1712.02 1333.2 1712.02 1898.57 1974.51 1898.57" stroke="#505050" stroke-width="2"/>
<path d="M1449.52 1427.43C1712.02 1427.43 1712.02 1615.88 1974.51 1615.88" stroke="#505050" stroke-width="2"/>
<path d="M1449.52 1427.43C1712.02 1427.43 1712.02 1710.11 1974.51 1710.11" stroke="#505050" stroke-width="2"/>
<path d="M1449.52 1427.43C1712.02 1427.43 1712.02 1804.34 1974.51 1804.34" stroke="#505050" stroke-width="2"/>
<path d="M1449.52 1427.43C1712.02 1427.43 1712.02 1898.57 1974.51 1898.57" stroke="#505050" stroke-width="2"/>
<path d="M1449.52 1521.66C1712.02 1521.66 1712.02 1615.88 1974.51 1615.88" stroke="#505050" stroke-width="2"/>
<path d="M1449.52 1521.66C1712.02 1521.66 1712.02 1710.11 1974.51 1710.11" stroke="#505050" stroke-width="2"/>
<path d="M1449.52 1521.66C1712.02 1521.66 1712.02 1804.34 1974.51 1804.34" stroke="#505050" stroke-width="2"/>
<path d="M1449.52 1521.66C1712.02 1521.66 1712.02 1898.57 1974.51 1898.57" stroke="#505050" stroke-width="2"/>
<path d="M1449.52 1615.88C1712.02 1615.88 1712.02 1615.88 1974.51 1615.88" stroke="#505050" stroke-width="2"/>
<path d="M1449.52 1615.88C1712.02 1615.88 1712.02 1710.11 1974.51 1710.11" stroke="#505050" stroke-width="2"/>
<path d="M1449.52 1615.88C1712.02 1615.88 1712.02 1804.34 1974.51 1804.34" stroke="#505050" stroke-width="2"/>
<path d="M1449.52 1615.88C1712.02 1615.88 1712.02 1898.57 1974.51 1898.57" stroke="#505050" stroke-width="2"/>
<path d="M1449.52 1710.11C1712.02 1710.11 1712.02 1615.88 1974.51 1615.88" stroke="#505050" stroke-width="2"/>
<path d="M1449.52 1710.11C1712.02 1710.11 1712.02 1710.11 1974.51 1710.11" stroke="#505050" stroke-width="2"/>
<path d="M1449.52 1710.11C1712.02 1710.11 1712.02 1804.34 1974.51 1804.34" stroke="#505050" stroke-width="2"/>
<path d="M1449.52 1710.11C1712.02 1710.11 1712.02 1898.57 1974.51 1898.57" stroke="#505050" stroke-width="2"/>
<path d="M1449.52 1804.34C1712.02 1804.34 1712.02 1615.88 1974.51 1615.88" stroke="#505050" stroke-width="2"/>
<path d="M1449.52 1804.34C1712.02 1804.34 1712.02 1710.11 1974.51 1710.11" stroke="#505050" stroke-width="2"/>
<path d="M1449.52 1804.34C1712.02 1804.34 1712.02 1804.34 1974.51 1804.34" stroke="#505050" stroke-width="2"/>
<path d="M1449.52 1804.34C1712.02 1804.34 1712.02 1898.57 1974.51 1898.57" stroke="#505050" stroke-width="2"/>
<path d="M1449.52 1898.57C1712.02 1898.57 1712.02 1615.88 1974.51 1615.88" stroke="#505050" stroke-width="2"/>
<path d="M1449.52 1898.57C1712.02 1898.57 1712.02 1710.11 1974.51 1710.11" stroke="#505050" stroke-width="2"/>
<path d="M1449.52 1898.57C1712.02 1898.57 1712.02 1804.34 1974.51 1804.34" stroke="#505050" stroke-width="2"/>
<path d="M1449.52 1898.57C1712.02 1898.57 1712.02 1898.57 1974.51 1898.57" stroke="#505050" stroke-width="2"/>
<path d="M1449.52 1992.8C1712.02 1992.8 1712.02 1615.88 1974.51 1615.88" stroke="#505050" stroke-width="2"/>
<path d="M1449.52 1992.8C1712.02 1992.8 1712.02 1710.11 1974.51 1710.11" stroke="#505050" stroke-width="2"/>
<path d="M1449.52 1992.8C1712.02 1992.8 1712.02 1804.34 1974.51 1804.34" stroke="#505050" stroke-width="2"/>
<path d="M1449.52 1992.8C1712.02 1992.8 1712.02 1898.57 1974.51 1898.57" stroke="#505050" stroke-width="2"/>
<path d="M1449.52 2087.03C1712.02 2087.03 1712.02 1615.88 1974.51 1615.88" stroke="#505050" stroke-width="2"/>
<path d="M1449.52 2087.03C1712.02 2087.03 1712.02 1710.11 1974.51 1710.11" stroke="#505050" stroke-width="2"/>
<path d="M1449.52 2087.03C1712.02 2087.03 1712.02 1804.34 1974.51 1804.34" stroke="#505050" stroke-width="2"/>
<path d="M1449.52 2087.03C1712.02 2087.03 1712.02 1898.57 1974.51 1898.57" stroke="#505050" stroke-width="2"/>
<path d="M1974.51 1615.88C2237.01 1615.88 2237.01 767.824 2499.5 767.824" stroke="#505050" stroke-width="2"/>
<path d="M1974.51 1615.88C2237.01 1615.88 2237.01 862.053 2499.5 862.053" stroke="#505050" stroke-width="2"/>
<path d="M1974.51 1615.88C2237.01 1615.88 2237.01 956.282 2499.5 956.282" stroke="#505050" stroke-width="2"/>
<path d="M1974.51 1615.88C2237.01 1615.88 2237.01 1050.51 2499.5 1050.51" stroke="#505050" stroke-width="2"/>
<path d="M1974.51 1615.88C2237.01 1615.88 2237.01 1144.74 2499.5 1144.74" stroke="#505050" stroke-width="2"/>
<path d="M1974.51 1615.88C2237.01 1615.88 2237.01 1238.97 2499.5 1238.97" stroke="#505050" stroke-width="2"/>
<path d="M1974.51 1615.88C2237.01 1615.88 2237.01 1333.2 2499.5 1333.2" stroke="#505050" stroke-width="2"/>
<path d="M1974.51 1615.88C2237.01 1615.88 2237.01 1427.43 2499.5 1427.43" stroke="#505050" stroke-width="2"/>
<path d="M1974.51 1615.88C2237.01 1615.88 2237.01 1521.66 2499.5 1521.66" stroke="#505050" stroke-width="2"/>
<path d="M1974.51 1710.11C2237.01 1710.11 2237.01 767.824 2499.5 767.824" stroke="#505050" stroke-width="2"/>
<path d="M1974.51 1710.11C2237.01 1710.11 2237.01 862.053 2499.5 862.053" stroke="#505050" stroke-width="2"/>
<path d="M1974.51 1710.11C2237.01 1710.11 2237.01 956.282 2499.5 956.282" stroke="#505050" stroke-width="2"/>
<path d="M1974.51 1710.11C2237.01 1710.11 2237.01 1050.51 2499.5 1050.51" stroke="#505050" stroke-width="2"/>
<path d="M1974.51 1710.11C2237.01 1710.11 2237.01 1144.74 2499.5 1144.74" stroke="#505050" stroke-width="2"/>
<path d="M1974.51 1710.11C2237.01 1710.11 2237.01 1238.97 2499.5 1238.97" stroke="#505050" stroke-width="2"/>
<path d="M1974.51 1710.11C2237.01 1710.11 2237.01 1333.2 2499.5 1333.2" stroke="#505050" stroke-width="2"/>
<path d="M1974.51 1710.11C2237.01 1710.11 2237.01 1427.43 2499.5 1427.43" stroke="#505050" stroke-width="2"/>
<path d="M1974.51 1710.11C2237.01 1710.11 2237.01 1521.66 2499.5 1521.66" stroke="#505050" stroke-width="2"/>
<path d="M1974.51 1804.34C2237.01 1804.34 2237.01 767.824 2499.5 767.824" stroke="#505050" stroke-width="2"/>
<path d="M1974.51 1804.34C2237.01 1804.34 2237.01 862.053 2499.5 862.053" stroke="#505050" stroke-width="2"/>
<path d="M1974.51 1804.34C2237.01 1804.34 2237.01 956.282 2499.5 956.282" stroke="#505050" stroke-width="2"/>
<path d="M1974.51 1804.34C2237.01 1804.34 2237.01 1050.51 2499.5 1050.51" stroke="#505050" stroke-width="2"/>
<path d="M1974.51 1804.34C2237.01 1804.34 2237.01 1144.74 2499.5 1144.74" stroke="#505050" stroke-width="2"/>
<path d="M1974.51 1804.34C2237.01 1804.34 2237.01 1238.97 2499.5 1238.97" stroke="#505050" stroke-width="2"/>
<path d="M1974.51 1804.34C2237.01 1804.34 2237.01 1333.2 2499.5 1333.2" stroke="#505050" stroke-width="2"/>
<path d="M1974.51 1804.34C2237.01 1804.34 2237.01 1427.43 2499.5 1427.43" stroke="#505050" stroke-width="2"/>
<path d="M1974.51 1804.34C2237.01 1804.34 2237.01 1521.66 2499.5 1521.66" stroke="#505050" stroke-width="2"/>
<path d="M1974.51 1898.57C2237.01 1898.57 2237.01 767.824 2499.5 767.824" stroke="#505050" stroke-width="2"/>
<path d="M1974.51 1898.57C2237.01 1898.57 2237.01 862.053 2499.5 862.053" stroke="#505050" stroke-width="2"/>
<path d="M1974.51 1898.57C2237.01 1898.57 2237.01 956.282 2499.5 956.282" stroke="#505050" stroke-width="2"/>
<path d="M1974.51 1898.57C2237.01 1898.57 2237.01 1050.51 2499.5 1050.51" stroke="#505050" stroke-width="2"/>
<path d="M1974.51 1898.57C2237.01 1898.57 2237.01 1144.74 2499.5 1144.74" stroke="#505050" stroke-width="2"/>
<path d="M1974.51 1898.57C2237.01 1898.57 2237.01 1238.97 2499.5 1238.97" stroke="#505050" stroke-width="2"/>
<path d="M1974.51 1898.57C2237.01 1898.57 2237.01 1333.2 2499.5 1333.2" stroke="#505050" stroke-width="2"/>
<path d="M1974.51 1898.57C2237.01 1898.57 2237.01 1427.43 2499.5 1427.43" stroke="#505050" stroke-width="2"/>
<path d="M1974.51 1898.57C2237.01 1898.57 2237.01 1521.66 2499.5 1521.66" stroke="#505050" stroke-width="2"/>
<path d="M1974.51 485.137C2237.01 485.137 2237.01 1615.88 2499.5 1615.88" stroke="#505050" stroke-width="2"/>
<path d="M1974.51 579.366C2237.01 579.366 2237.01 1615.88 2499.5 1615.88" stroke="#505050" stroke-width="2"/>
<path d="M1974.51 673.595C2237.01 673.595 2237.01 1615.88 2499.5 1615.88" stroke="#505050" stroke-width="2"/>
<path d="M1974.51 767.824C2237.01 767.824 2237.01 1615.88 2499.5 1615.88" stroke="#505050" stroke-width="2"/>
<path d="M1974.51 862.053C2237.01 862.053 2237.01 1615.88 2499.5 1615.88" stroke="#505050" stroke-width="2"/>
<path d="M1974.51 956.282C2237.01 956.282 2237.01 1615.88 2499.5 1615.88" stroke="#505050" stroke-width="2"/>
<path d="M1974.51 1050.51C2237.01 1050.51 2237.01 1615.88 2499.5 1615.88" stroke="#505050" stroke-width="2"/>
<path d="M1974.51 1144.74C2237.01 1144.74 2237.01 1615.88 2499.5 1615.88" stroke="#505050" stroke-width="2"/>
<path d="M1974.51 1238.97C2237.01 1238.97 2237.01 1615.88 2499.5 1615.88" stroke="#505050" stroke-width="2"/>
<path d="M1974.51 1333.2C2237.01 1333.2 2237.01 1615.88 2499.5 1615.88" stroke="#505050" stroke-width="2"/>
<path d="M1974.51 1427.43C2237.01 1427.43 2237.01 1615.88 2499.5 1615.88" stroke="#505050" stroke-width="2"/>
<path d="M1974.51 1521.66C2237.01 1521.66 2237.01 1615.88 2499.5 1615.88" stroke="#505050" stroke-width="2"/>
<path d="M1974.51 1615.88C2237.01 1615.88 2237.01 1615.88 2499.5 1615.88" stroke="#505050" stroke-width="2"/>
<path d="M1974.51 1710.11C2237.01 1710.11 2237.01 1615.88 2499.5 1615.88" stroke="#505050" stroke-width="2"/>
<path d="M1974.51 1804.34C2237.01 1804.34 2237.01 1615.88 2499.5 1615.88" stroke="#505050" stroke-width="2"/>
<path d="M1974.51 1898.57C2237.01 1898.57 2237.01 1615.88 2499.5 1615.88" stroke="#505050" stroke-width="2"/>
<path d="M1974.51 485.137C2237.01 485.137 2237.01 1710.11 2499.5 1710.11" stroke="#505050" stroke-width="2"/>
<path d="M1974.51 579.366C2237.01 579.366 2237.01 1710.11 2499.5 1710.11" stroke="#505050" stroke-width="2"/>
<path d="M1974.51 673.595C2237.01 673.595 2237.01 1710.11 2499.5 1710.11" stroke="#505050" stroke-width="2"/>
<path d="M1974.51 767.824C2237.01 767.824 2237.01 1710.11 2499.5 1710.11" stroke="#505050" stroke-width="2"/>
<path d="M1974.51 862.053C2237.01 862.053 2237.01 1710.11 2499.5 1710.11" stroke="#505050" stroke-width="2"/>
<path d="M1974.51 956.282C2237.01 956.282 2237.01 1710.11 2499.5 1710.11" stroke="#505050" stroke-width="2"/>
<path d="M1974.51 1050.51C2237.01 1050.51 2237.01 1710.11 2499.5 1710.11" stroke="#505050" stroke-width="2"/>
<path d="M1974.51 1144.74C2237.01 1144.74 2237.01 1710.11 2499.5 1710.11" stroke="#505050" stroke-width="2"/>
<path d="M1974.51 1238.97C2237.01 1238.97 2237.01 1710.11 2499.5 1710.11" stroke="#505050" stroke-width="2"/>
<path d="M1974.51 1333.2C2237.01 1333.2 2237.01 1710.11 2499.5 1710.11" stroke="#505050" stroke-width="2"/>
<path d="M1974.51 1427.43C2237.01 1427.43 2237.01 1710.11 2499.5 1710.11" stroke="#505050" stroke-width="2"/>
<path d="M1974.51 1521.66C2237.01 1521.66 2237.01 1710.11 2499.5 1710.11" stroke="#505050" stroke-width="2"/>
<path d="M1974.51 1615.88C2237.01 1615.88 2237.01 1710.11 2499.5 1710.11" stroke="#505050" stroke-width="2"/>
<path d="M1974.51 1710.11C2237.01 1710.11 2237.01 1710.11 2499.5 1710.11" stroke="#505050" stroke-width="2"/>
<path d="M1974.51 1804.34C2237.01 1804.34 2237.01 1710.11 2499.5 1710.11" stroke="#505050" stroke-width="2"/>
<path d="M1974.51 1898.57C2237.01 1898.57 2237.01 1710.11 2499.5 1710.11" stroke="#505050" stroke-width="2"/>
<path d="M2499.5 673.595C2762 673.595 2762 956.282 3024.49 956.282" stroke="#505050" stroke-width="2"/>
<path d="M2499.5 673.595C2762 673.595 2762 1050.51 3024.49 1050.51" stroke="#505050" stroke-width="2"/>
<path d="M2499.5 673.595C2762 673.595 2762 1144.74 3024.49 1144.74" stroke="#505050" stroke-width="2"/>
<path d="M2499.5 673.595C2762 673.595 2762 1238.97 3024.49 1238.97" stroke="#505050" stroke-width="2"/>
<path d="M2499.5 673.595C2762 673.595 2762 1333.2 3024.49 1333.2" stroke="#505050" stroke-width="2"/>
<path d="M2499.5 673.595C2762 673.595 2762 1427.43 3024.49 1427.43" stroke="#505050" stroke-width="2"/>
<path d="M2499.5 673.595C2762 673.595 2762 1521.66 3024.49 1521.66" stroke="#505050" stroke-width="2"/>
<path d="M2499.5 767.824C2762 767.824 2762 956.282 3024.49 956.282" stroke="#505050" stroke-width="2"/>
<path d="M2499.5 767.824C2762 767.824 2762 1050.51 3024.49 1050.51" stroke="#505050" stroke-width="2"/>
<path d="M2499.5 767.824C2762 767.824 2762 1144.74 3024.49 1144.74" stroke="#505050" stroke-width="2"/>
<path d="M2499.5 767.824C2762 767.824 2762 1238.97 3024.49 1238.97" stroke="#505050" stroke-width="2"/>
<path d="M2499.5 767.824C2762 767.824 2762 1333.2 3024.49 1333.2" stroke="#505050" stroke-width="2"/>
<path d="M2499.5 767.824C2762 767.824 2762 1427.43 3024.49 1427.43" stroke="#505050" stroke-width="2"/>
<path d="M2499.5 767.824C2762 767.824 2762 1521.66 3024.49 1521.66" stroke="#505050" stroke-width="2"/>
<path d="M2499.5 862.053C2762 862.053 2762 956.282 3024.49 956.282" stroke="#505050" stroke-width="2"/>
<path d="M2499.5 862.053C2762 862.053 2762 1050.51 3024.49 1050.51" stroke="#505050" stroke-width="2"/>
<path d="M2499.5 862.053C2762 862.053 2762 1144.74 3024.49 1144.74" stroke="#505050" stroke-width="2"/>
<path d="M2499.5 862.053C2762 862.053 2762 1238.97 3024.49 1238.97" stroke="#505050" stroke-width="2"/>
<path d="M2499.5 862.053C2762 862.053 2762 1333.2 3024.49 1333.2" stroke="#505050" stroke-width="2"/>
<path d="M2499.5 862.053C2762 862.053 2762 1427.43 3024.49 1427.43" stroke="#505050" stroke-width="2"/>
<path d="M2499.5 862.053C2762 862.053 2762 1521.66 3024.49 1521.66" stroke="#505050" stroke-width="2"/>
<path d="M2499.5 956.282C2762 956.282 2762 956.282 3024.49 956.282" stroke="#505050" stroke-width="2"/>
<path d="M2499.5 956.282C2762 956.282 2762 1050.51 3024.49 1050.51" stroke="#505050" stroke-width="2"/>
<path d="M2499.5 956.282C2762 956.282 2762 1144.74 3024.49 1144.74" stroke="#505050" stroke-width="2"/>
<path d="M2499.5 956.282C2762 956.282 2762 1238.97 3024.49 1238.97" stroke="#505050" stroke-width="2"/>
<path d="M2499.5 956.282C2762 956.282 2762 1333.2 3024.49 1333.2" stroke="#505050" stroke-width="2"/>
<path d="M2499.5 956.282C2762 956.282 2762 1427.43 3024.49 1427.43" stroke="#505050" stroke-width="2"/>
<path d="M2499.5 956.282C2762 956.282 2762 1521.66 3024.49 1521.66" stroke="#505050" stroke-width="2"/>
<path d="M2499.5 1050.51C2762 1050.51 2762 956.282 3024.49 956.282" stroke="#505050" stroke-width="2"/>
<path d="M2499.5 1050.51C2762 1050.51 2762 1050.51 3024.49 1050.51" stroke="#505050" stroke-width="2"/>
<path d="M2499.5 1050.51C2762 1050.51 2762 1144.74 3024.49 1144.74" stroke="#505050" stroke-width="2"/>
<path d="M2499.5 1050.51C2762 1050.51 2762 1238.97 3024.49 1238.97" stroke="#505050" stroke-width="2"/>
<path d="M2499.5 1050.51C2762 1050.51 2762 1333.2 3024.49 1333.2" stroke="#505050" stroke-width="2"/>
<path d="M2499.5 1050.51C2762 1050.51 2762 1427.43 3024.49 1427.43" stroke="#505050" stroke-width="2"/>
<path d="M2499.5 1050.51C2762 1050.51 2762 1521.66 3024.49 1521.66" stroke="#505050" stroke-width="2"/>
<path d="M2499.5 1144.74C2762 1144.74 2762 956.282 3024.49 956.282" stroke="#505050" stroke-width="2"/>
<path d="M2499.5 1144.74C2762 1144.74 2762 1050.51 3024.49 1050.51" stroke="#505050" stroke-width="2"/>
<path d="M2499.5 1144.74C2762 1144.74 2762 1144.74 3024.49 1144.74" stroke="#505050" stroke-width="2"/>
<path d="M2499.5 1144.74C2762 1144.74 2762 1238.97 3024.49 1238.97" stroke="#505050" stroke-width="2"/>
<path d="M2499.5 1144.74C2762 1144.74 2762 1333.2 3024.49 1333.2" stroke="#505050" stroke-width="2"/>
<path d="M2499.5 1144.74C2762 1144.74 2762 1427.43 3024.49 1427.43" stroke="#505050" stroke-width="2"/>
<path d="M2499.5 1144.74C2762 1144.74 2762 1521.66 3024.49 1521.66" stroke="#505050" stroke-width="2"/>
<path d="M2499.5 1238.97C2762 1238.97 2762 956.282 3024.49 956.282" stroke="#505050" stroke-width="2"/>
<path d="M2499.5 1238.97C2762 1238.97 2762 1050.51 3024.49 1050.51" stroke="#505050" stroke-width="2"/>
<path d="M2499.5 1238.97C2762 1238.97 2762 1144.74 3024.49 1144.74" stroke="#505050" stroke-width="2"/>
<path d="M2499.5 1238.97C2762 1238.97 2762 1238.97 3024.49 1238.97" stroke="#505050" stroke-width="2"/>
<path d="M2499.5 1238.97C2762 1238.97 2762 1333.2 3024.49 1333.2" stroke="#505050" stroke-width="2"/>
<path d="M2499.5 1238.97C2762 1238.97 2762 1427.43 3024.49 1427.43" stroke="#505050" stroke-width="2"/>
<path d="M2499.5 1238.97C2762 1238.97 2762 1521.66 3024.49 1521.66" stroke="#505050" stroke-width="2"/>
<path d="M2499.5 1333.2C2762 1333.2 2762 956.282 3024.49 956.282" stroke="#505050" stroke-width="2"/>
<path d="M2499.5 1333.2C2762 1333.2 2762 1050.51 3024.49 1050.51" stroke="#505050" stroke-width="2"/>
<path d="M2499.5 1333.2C2762 1333.2 2762 1144.74 3024.49 1144.74" stroke="#505050" stroke-width="2"/>
<path d="M2499.5 1333.2C2762 1333.2 2762 1238.97 3024.49 1238.97" stroke="#505050" stroke-width="2"/>
<path d="M2499.5 1333.2C2762 1333.2 2762 1333.2 3024.49 1333.2" stroke="#505050" stroke-width="2"/>
<path d="M2499.5 1333.2C2762 1333.2 2762 1427.43 3024.49 1427.43" stroke="#505050" stroke-width="2"/>
<path d="M2499.5 1333.2C2762 1333.2 2762 1521.66 3024.49 1521.66" stroke="#505050" stroke-width="2"/>
<path d="M2499.5 1427.43C2762 1427.43 2762 956.282 3024.49 956.282" stroke="#505050" stroke-width="2"/>
<path d="M2499.5 1427.43C2762 1427.43 2762 1050.51 3024.49 1050.51" stroke="#505050" stroke-width="2"/>
<path d="M2499.5 1427.43C2762 1427.43 2762 1144.74 3024.49 1144.74" stroke="#505050" stroke-width="2"/>
<path d="M2499.5 1427.43C2762 1427.43 2762 1238.97 3024.49 1238.97" stroke="#505050" stroke-width="2"/>
<path d="M2499.5 1427.43C2762 1427.43 2762 1333.2 3024.49 1333.2" stroke="#505050" stroke-width="2"/>
<path d="M2499.5 1427.43C2762 1427.43 2762 1427.43 3024.49 1427.43" stroke="#505050" stroke-width="2"/>
<path d="M2499.5 1427.43C2762 1427.43 2762 1521.66 3024.49 1521.66" stroke="#505050" stroke-width="2"/>
<path d="M2499.5 1521.66C2762 1521.66 2762 956.282 3024.49 956.282" stroke="#505050" stroke-width="2"/>
<path d="M2499.5 1521.66C2762 1521.66 2762 1050.51 3024.49 1050.51" stroke="#505050" stroke-width="2"/>
<path d="M2499.5 1521.66C2762 1521.66 2762 1144.74 3024.49 1144.74" stroke="#505050" stroke-width="2"/>
<path d="M2499.5 1521.66C2762 1521.66 2762 1238.97 3024.49 1238.97" stroke="#505050" stroke-width="2"/>
<path d="M2499.5 1521.66C2762 1521.66 2762 1333.2 3024.49 1333.2" stroke="#505050" stroke-width="2"/>
<path d="M2499.5 1521.66C2762 1521.66 2762 1427.43 3024.49 1427.43" stroke="#505050" stroke-width="2"/>
<path d="M2499.5 1521.66C2762 1521.66 2762 1521.66 3024.49 1521.66" stroke="#505050" stroke-width="2"/>
<path d="M2499.5 1615.88C2762 1615.88 2762 956.282 3024.49 956.282" stroke="#505050" stroke-width="2"/>
<path d="M2499.5 1615.88C2762 1615.88 2762 1050.51 3024.49 1050.51" stroke="#505050" stroke-width="2"/>
<path d="M2499.5 1615.88C2762 1615.88 2762 1144.74 3024.49 1144.74" stroke="#505050" stroke-width="2"/>
<path d="M2499.5 1615.88C2762 1615.88 2762 1238.97 3024.49 1238.97" stroke="#505050" stroke-width="2"/>
<path d="M2499.5 1615.88C2762 1615.88 2762 1333.2 3024.49 1333.2" stroke="#505050" stroke-width="2"/>
<path d="M2499.5 1615.88C2762 1615.88 2762 1427.43 3024.49 1427.43" stroke="#505050" stroke-width="2"/>
<path d="M2499.5 1615.88C2762 1615.88 2762 1521.66 3024.49 1521.66" stroke="#505050" stroke-width="2"/>
<path d="M2499.5 1710.11C2762 1710.11 2762 956.282 3024.49 956.282" stroke="#505050" stroke-width="2"/>
<path d="M2499.5 1710.11C2762 1710.11 2762 1050.51 3024.49 1050.51" stroke="#505050" stroke-width="2"/>
<path d="M2499.5 1710.11C2762 1710.11 2762 1144.74 3024.49 1144.74" stroke="#505050" stroke-width="2"/>
<path d="M2499.5 1710.11C2762 1710.11 2762 1238.97 3024.49 1238.97" stroke="#505050" stroke-width="2"/>
<path d="M2499.5 1710.11C2762 1710.11 2762 1333.2 3024.49 1333.2" stroke="#505050" stroke-width="2"/>
<path d="M2499.5 1710.11C2762 1710.11 2762 1427.43 3024.49 1427.43" stroke="#505050" stroke-width="2"/>
<path d="M2499.5 1710.11C2762 1710.11 2762 1521.66 3024.49 1521.66" stroke="#505050" stroke-width="2"/>
<path d="M3024.49 862.053C3286.99 862.053 3286.99 1050.51 3549.48 1050.51" stroke="#505050" stroke-width="2"/>
<path d="M3024.49 862.053C3286.99 862.053 3286.99 1144.74 3549.48 1144.74" stroke="#505050" stroke-width="2"/>
<path d="M3024.49 862.053C3286.99 862.053 3286.99 1238.97 3549.48 1238.97" stroke="#505050" stroke-width="2"/>
<path d="M3024.49 862.053C3286.99 862.053 3286.99 1333.2 3549.48 1333.2" stroke="#505050" stroke-width="2"/>
<path d="M3024.49 862.053C3286.99 862.053 3286.99 1427.43 3549.48 1427.43" stroke="#505050" stroke-width="2"/>
<path d="M3024.49 956.282C3286.99 956.282 3286.99 1050.51 3549.48 1050.51" stroke="#505050" stroke-width="2"/>
<path d="M3024.49 956.282C3286.99 956.282 3286.99 1144.74 3549.48 1144.74" stroke="#505050" stroke-width="2"/>
<path d="M3024.49 956.282C3286.99 956.282 3286.99 1238.97 3549.48 1238.97" stroke="#505050" stroke-width="2"/>
<path d="M3024.49 956.282C3286.99 956.282 3286.99 1333.2 3549.48 1333.2" stroke="#505050" stroke-width="2"/>
<path d="M3024.49 956.282C3286.99 956.282 3286.99 1427.43 3549.48 1427.43" stroke="#505050" stroke-width="2"/>
<path d="M3024.49 1050.51C3286.99 1050.51 3286.99 1050.51 3549.48 1050.51" stroke="#505050" stroke-width="2"/>
<path d="M3024.49 1050.51C3286.99 1050.51 3286.99 1144.74 3549.48 1144.74" stroke="#505050" stroke-width="2"/>
<path d="M3024.49 1050.51C3286.99 1050.51 3286.99 1238.97 3549.48 1238.97" stroke="#505050" stroke-width="2"/>
<path d="M3024.49 1050.51C3286.99 1050.51 3286.99 1333.2 3549.48 1333.2" stroke="#505050" stroke-width="2"/>
<path d="M3024.49 1050.51C3286.99 1050.51 3286.99 1427.43 3549.48 1427.43" stroke="#505050" stroke-width="2"/>
<path d="M3024.49 1144.74C3286.99 1144.74 3286.99 1050.51 3549.48 1050.51" stroke="#505050" stroke-width="2"/>
<path d="M3024.49 1144.74C3286.99 1144.74 3286.99 1144.74 3549.48 1144.74" stroke="#505050" stroke-width="2"/>
<path d="M3024.49 1144.74C3286.99 1144.74 3286.99 1238.97 3549.48 1238.97" stroke="#505050" stroke-width="2"/>
<path d="M3024.49 1144.74C3286.99 1144.74 3286.99 1333.2 3549.48 1333.2" stroke="#505050" stroke-width="2"/>
<path d="M3024.49 1144.74C3286.99 1144.74 3286.99 1427.43 3549.48 1427.43" stroke="#505050" stroke-width="2"/>
<path d="M3024.49 1238.97C3286.99 1238.97 3286.99 1050.51 3549.48 1050.51" stroke="#505050" stroke-width="2"/>
<path d="M3024.49 1238.97C3286.99 1238.97 3286.99 1144.74 3549.48 1144.74" stroke="#505050" stroke-width="2"/>
<path d="M3024.49 1238.97C3286.99 1238.97 3286.99 1238.97 3549.48 1238.97" stroke="#505050" stroke-width="2"/>
<path d="M3024.49 1238.97C3286.99 1238.97 3286.99 1333.2 3549.48 1333.2" stroke="#505050" stroke-width="2"/>
<path d="M3024.49 1238.97C3286.99 1238.97 3286.99 1427.43 3549.48 1427.43" stroke="#505050" stroke-width="2"/>
<path d="M3024.49 1333.2C3286.99 1333.2 3286.99 1050.51 3549.48 1050.51" stroke="#505050" stroke-width="2"/>
<path d="M3024.49 1333.2C3286.99 1333.2 3286.99 1144.74 3549.48 1144.74" stroke="#505050" stroke-width="2"/>
<path d="M3024.49 1333.2C3286.99 1333.2 3286.99 1238.97 3549.48 1238.97" stroke="#505050" stroke-width="2"/>
<path d="M3024.49 1333.2C3286.99 1333.2 3286.99 1333.2 3549.48 1333.2" stroke="#505050" stroke-width="2"/>
<path d="M3024.49 1333.2C3286.99 1333.2 3286.99 1427.43 3549.48 1427.43" stroke="#505050" stroke-width="2"/>
<path d="M3024.49 1427.43C3286.99 1427.43 3286.99 1050.51 3549.48 1050.51" stroke="#505050" stroke-width="2"/>
<path d="M3024.49 1427.43C3286.99 1427.43 3286.99 1144.74 3549.48 1144.74" stroke="#505050" stroke-width="2"/>
<path d="M3024.49 1427.43C3286.99 1427.43 3286.99 1238.97 3549.48 1238.97" stroke="#505050" stroke-width="2"/>
<path d="M3024.49 1427.43C3286.99 1427.43 3286.99 1333.2 3549.48 1333.2" stroke="#505050" stroke-width="2"/>
<path d="M3024.49 1427.43C3286.99 1427.43 3286.99 1427.43 3549.48 1427.43" stroke="#505050" stroke-width="2"/>
<path d="M3024.49 1521.66C3286.99 1521.66 3286.99 1050.51 3549.48 1050.51" stroke="#505050" stroke-width="2"/>
<path d="M3024.49 1521.66C3286.99 1521.66 3286.99 1144.74 3549.48 1144.74" stroke="#505050" stroke-width="2"/>
<path d="M3024.49 1521.66C3286.99 1521.66 3286.99 1238.97 3549.48 1238.97" stroke="#505050" stroke-width="2"/>
<path d="M3024.49 1521.66C3286.99 1521.66 3286.99 1333.2 3549.48 1333.2" stroke="#505050" stroke-width="2"/>
<path d="M3024.49 1521.66C3286.99 1521.66 3286.99 1427.43 3549.48 1427.43" stroke="#505050" stroke-width="2"/>
<path d="M3549.48 956.282C3811.98 956.282 3811.98 1191.85 4074.47 1191.85" stroke="#505050" stroke-width="2"/>
<path d="M3549.48 1050.51C3811.98 1050.51 3811.98 1191.85 4074.47 1191.85" stroke="#505050" stroke-width="2"/>
<path d="M3549.48 1144.74C3811.98 1144.74 3811.98 1191.85 4074.47 1191.85" stroke="#505050" stroke-width="2"/>
<path d="M3549.48 1238.97C3811.98 1238.97 3811.98 1191.85 4074.47 1191.85" stroke="#505050" stroke-width="2"/>
<path d="M3549.48 1333.2C3811.98 1333.2 3811.98 1191.85 4074.47 1191.85" stroke="#505050" stroke-width="2"/>
<path d="M3549.48 1427.43C3811.98 1427.43 3811.98 1191.85 4074.47 1191.85" stroke="#505050" stroke-width="2"/>
<path d="M1449.52 296.679C1712.02 296.679 1712.02 485.137 1974.51 485.137" stroke="#505050" stroke-width="2"/>
<path d="M1449.52 390.908C1712.02 390.908 1712.02 485.137 1974.51 485.137" stroke="#505050" stroke-width="2"/>
<path d="M1449.52 485.137C1712.02 485.137 1712.02 485.137 1974.51 485.137" stroke="#505050" stroke-width="2"/>
<path d="M1449.52 579.366C1712.02 579.366 1712.02 485.137 1974.51 485.137" stroke="#505050" stroke-width="2"/>
<path d="M1449.52 673.595C1712.02 673.595 1712.02 485.137 1974.51 485.137" stroke="#505050" stroke-width="2"/>
<path d="M1449.52 767.824C1712.02 767.824 1712.02 485.137 1974.51 485.137" stroke="#505050" stroke-width="2"/>
<path d="M1449.52 862.053C1712.02 862.053 1712.02 485.137 1974.51 485.137" stroke="#505050" stroke-width="2"/>
<path d="M1449.52 956.282C1712.02 956.282 1712.02 485.137 1974.51 485.137" stroke="#505050" stroke-width="2"/>
<path d="M1449.52 1050.51C1712.02 1050.51 1712.02 485.137 1974.51 485.137" stroke="#505050" stroke-width="2"/>
<path d="M1449.52 1144.74C1712.02 1144.74 1712.02 485.137 1974.51 485.137" stroke="#505050" stroke-width="2"/>
<path d="M1449.52 1238.97C1712.02 1238.97 1712.02 485.137 1974.51 485.137" stroke="#505050" stroke-width="2"/>
<path d="M1449.52 1333.2C1712.02 1333.2 1712.02 485.137 1974.51 485.137" stroke="#505050" stroke-width="2"/>
<path d="M1449.52 1427.43C1712.02 1427.43 1712.02 485.137 1974.51 485.137" stroke="#505050" stroke-width="2"/>
<path d="M1449.52 1521.66C1712.02 1521.66 1712.02 485.137 1974.51 485.137" stroke="#505050" stroke-width="2"/>
<path d="M1449.52 1615.88C1712.02 1615.88 1712.02 485.137 1974.51 485.137" stroke="#505050" stroke-width="2"/>
<path d="M1449.52 1710.11C1712.02 1710.11 1712.02 485.137 1974.51 485.137" stroke="#505050" stroke-width="2"/>
<path d="M1449.52 1804.34C1712.02 1804.34 1712.02 485.137 1974.51 485.137" stroke="#505050" stroke-width="2"/>
<path d="M1449.52 1898.57C1712.02 1898.57 1712.02 485.137 1974.51 485.137" stroke="#505050" stroke-width="2"/>
<path d="M1449.52 1992.8C1712.02 1992.8 1712.02 485.137 1974.51 485.137" stroke="#505050" stroke-width="2"/>
<path d="M1449.52 2087.03C1712.02 2087.03 1712.02 485.137 1974.51 485.137" stroke="#505050" stroke-width="2"/>
<path d="M1974.51 485.137C2237.01 485.137 2237.01 673.595 2499.5 673.595" stroke="#505050" stroke-width="2"/>
<path d="M1974.51 579.366C2237.01 579.366 2237.01 673.595 2499.5 673.595" stroke="#505050" stroke-width="2"/>
<path d="M1974.51 673.595C2237.01 673.595 2237.01 673.595 2499.5 673.595" stroke="#505050" stroke-width="2"/>
<path d="M1974.51 767.824C2237.01 767.824 2237.01 673.595 2499.5 673.595" stroke="#505050" stroke-width="2"/>
<path d="M1974.51 862.053C2237.01 862.053 2237.01 673.595 2499.5 673.595" stroke="#505050" stroke-width="2"/>
<path d="M1974.51 956.282C2237.01 956.282 2237.01 673.595 2499.5 673.595" stroke="#505050" stroke-width="2"/>
<path d="M1974.51 1050.51C2237.01 1050.51 2237.01 673.595 2499.5 673.595" stroke="#505050" stroke-width="2"/>
<path d="M1974.51 1144.74C2237.01 1144.74 2237.01 673.595 2499.5 673.595" stroke="#505050" stroke-width="2"/>
<path d="M1974.51 1238.97C2237.01 1238.97 2237.01 673.595 2499.5 673.595" stroke="#505050" stroke-width="2"/>
<path d="M1974.51 1333.2C2237.01 1333.2 2237.01 673.595 2499.5 673.595" stroke="#505050" stroke-width="2"/>
<path d="M1974.51 1427.43C2237.01 1427.43 2237.01 673.595 2499.5 673.595" stroke="#505050" stroke-width="2"/>
<path d="M1974.51 1521.66C2237.01 1521.66 2237.01 673.595 2499.5 673.595" stroke="#505050" stroke-width="2"/>
<path d="M1974.51 1615.88C2237.01 1615.88 2237.01 673.595 2499.5 673.595" stroke="#505050" stroke-width="2"/>
<path d="M1974.51 1710.11C2237.01 1710.11 2237.01 673.595 2499.5 673.595" stroke="#505050" stroke-width="2"/>
<path d="M1974.51 1804.34C2237.01 1804.34 2237.01 673.595 2499.5 673.595" stroke="#505050" stroke-width="2"/>
<path d="M1974.51 1898.57C2237.01 1898.57 2237.01 673.595 2499.5 673.595" stroke="#505050" stroke-width="2"/>
<path d="M2499.5 673.595C2762 673.595 2762 862.053 3024.49 862.053" stroke="#505050" stroke-width="2"/>
<path d="M2499.5 767.824C2762 767.824 2762 862.053 3024.49 862.053" stroke="#505050" stroke-width="2"/>
<path d="M2499.5 862.053C2762 862.053 2762 862.053 3024.49 862.053" stroke="#505050" stroke-width="2"/>
<path d="M2499.5 956.282C2762 956.282 2762 862.053 3024.49 862.053" stroke="#505050" stroke-width="2"/>
<path d="M2499.5 1050.51C2762 1050.51 2762 862.053 3024.49 862.053" stroke="#505050" stroke-width="2"/>
<path d="M2499.5 1144.74C2762 1144.74 2762 862.053 3024.49 862.053" stroke="#505050" stroke-width="2"/>
<path d="M2499.5 1238.97C2762 1238.97 2762 862.053 3024.49 862.053" stroke="#505050" stroke-width="2"/>
<path d="M2499.5 1333.2C2762 1333.2 2762 862.053 3024.49 862.053" stroke="#505050" stroke-width="2"/>
<path d="M2499.5 1427.43C2762 1427.43 2762 862.053 3024.49 862.053" stroke="#505050" stroke-width="2"/>
<path d="M2499.5 1521.66C2762 1521.66 2762 862.053 3024.49 862.053" stroke="#505050" stroke-width="2"/>
<path d="M2499.5 1615.88C2762 1615.88 2762 862.053 3024.49 862.053" stroke="#505050" stroke-width="2"/>
<path d="M2499.5 1710.11C2762 1710.11 2762 862.053 3024.49 862.053" stroke="#505050" stroke-width="2"/>
<path d="M3024.49 862.053C3286.99 862.053 3286.99 956.282 3549.48 956.282" stroke="#505050" stroke-width="2"/>
<path d="M3024.49 956.282C3286.99 956.282 3286.99 956.282 3549.48 956.282" stroke="#505050" stroke-width="2"/>
<path d="M3024.49 1050.51C3286.99 1050.51 3286.99 956.282 3549.48 956.282" stroke="#505050" stroke-width="2"/>
<path d="M3024.49 1144.74C3286.99 1144.74 3286.99 956.282 3549.48 956.282" stroke="#505050" stroke-width="2"/>
<path d="M3024.49 1238.97C3286.99 1238.97 3286.99 956.282 3549.48 956.282" stroke="#505050" stroke-width="2"/>
<path d="M3024.49 1333.2C3286.99 1333.2 3286.99 956.282 3549.48 956.282" stroke="#505050" stroke-width="2"/>
<path d="M3024.49 1427.43C3286.99 1427.43 3286.99 956.282 3549.48 956.282" stroke="#505050" stroke-width="2"/>
<path d="M3024.49 1521.66C3286.99 1521.66 3286.99 956.282 3549.48 956.282" stroke="#505050" stroke-width="2"/>
<path d="M1449.52 321.358C1463.15 321.358 1474.2 310.309 1474.2 296.679C1474.2 283.049 1463.15 272 1449.52 272C1435.89 272 1424.85 283.049 1424.85 296.679C1424.85 310.309 1435.89 321.358 1449.52 321.358Z" fill="#E3E3E3" stroke="#333333" stroke-width="2"/>
<path d="M1449.52 415.587C1463.15 415.587 1474.2 404.538 1474.2 390.908C1474.2 377.278 1463.15 366.229 1449.52 366.229C1435.89 366.229 1424.85 377.278 1424.85 390.908C1424.85 404.538 1435.89 415.587 1449.52 415.587Z" fill="#E3E3E3" stroke="#333333" stroke-width="2"/>
<path d="M1449.52 509.816C1463.15 509.816 1474.2 498.767 1474.2 485.137C1474.2 471.507 1463.15 460.458 1449.52 460.458C1435.89 460.458 1424.85 471.507 1424.85 485.137C1424.85 498.767 1435.89 509.816 1449.52 509.816Z" fill="#E3E3E3" stroke="#333333" stroke-width="2"/>
<path d="M1449.52 604.045C1463.15 604.045 1474.2 592.996 1474.2 579.366C1474.2 565.736 1463.15 554.687 1449.52 554.687C1435.89 554.687 1424.85 565.736 1424.85 579.366C1424.85 592.996 1435.89 604.045 1449.52 604.045Z" fill="#E3E3E3" stroke="#333333" stroke-width="2"/>
<path d="M1449.52 698.274C1463.15 698.274 1474.2 687.225 1474.2 673.595C1474.2 659.965 1463.15 648.916 1449.52 648.916C1435.89 648.916 1424.85 659.965 1424.85 673.595C1424.85 687.225 1435.89 698.274 1449.52 698.274Z" fill="#E3E3E3" stroke="#333333" stroke-width="2"/>
<path d="M1449.52 792.503C1463.15 792.503 1474.2 781.454 1474.2 767.824C1474.2 754.194 1463.15 743.145 1449.52 743.145C1435.89 743.145 1424.85 754.194 1424.85 767.824C1424.85 781.454 1435.89 792.503 1449.52 792.503Z" fill="#E3E3E3" stroke="#333333" stroke-width="2"/>
<path d="M1449.52 886.732C1463.15 886.732 1474.2 875.683 1474.2 862.053C1474.2 848.423 1463.15 837.374 1449.52 837.374C1435.89 837.374 1424.85 848.423 1424.85 862.053C1424.85 875.683 1435.89 886.732 1449.52 886.732Z" fill="#E3E3E3" stroke="#333333" stroke-width="2"/>
<path d="M1449.52 980.961C1463.15 980.961 1474.2 969.912 1474.2 956.282C1474.2 942.652 1463.15 931.603 1449.52 931.603C1435.89 931.603 1424.85 942.652 1424.85 956.282C1424.85 969.912 1435.89 980.961 1449.52 980.961Z" fill="#E3E3E3" stroke="#333333" stroke-width="2"/>
<path d="M1449.52 1075.19C1463.15 1075.19 1474.2 1064.14 1474.2 1050.51C1474.2 1036.88 1463.15 1025.83 1449.52 1025.83C1435.89 1025.83 1424.85 1036.88 1424.85 1050.51C1424.85 1064.14 1435.89 1075.19 1449.52 1075.19Z" fill="#E3E3E3" stroke="#333333" stroke-width="2"/>
<path d="M1449.52 1169.42C1463.15 1169.42 1474.2 1158.37 1474.2 1144.74C1474.2 1131.11 1463.15 1120.06 1449.52 1120.06C1435.89 1120.06 1424.85 1131.11 1424.85 1144.74C1424.85 1158.37 1435.89 1169.42 1449.52 1169.42Z" fill="#E3E3E3" stroke="#333333" stroke-width="2"/>
<path d="M1449.52 1263.65C1463.15 1263.65 1474.2 1252.6 1474.2 1238.97C1474.2 1225.34 1463.15 1214.29 1449.52 1214.29C1435.89 1214.29 1424.85 1225.34 1424.85 1238.97C1424.85 1252.6 1435.89 1263.65 1449.52 1263.65Z" fill="#E3E3E3" stroke="#333333" stroke-width="2"/>
<path d="M1449.52 1357.88C1463.15 1357.88 1474.2 1346.83 1474.2 1333.2C1474.2 1319.57 1463.15 1308.52 1449.52 1308.52C1435.89 1308.52 1424.85 1319.57 1424.85 1333.2C1424.85 1346.83 1435.89 1357.88 1449.52 1357.88Z" fill="#E3E3E3" stroke="#333333" stroke-width="2"/>
<path d="M1449.52 1452.11C1463.15 1452.11 1474.2 1441.06 1474.2 1427.43C1474.2 1413.8 1463.15 1402.75 1449.52 1402.75C1435.89 1402.75 1424.85 1413.8 1424.85 1427.43C1424.85 1441.06 1435.89 1452.11 1449.52 1452.11Z" fill="#E3E3E3" stroke="#333333" stroke-width="2"/>
<path d="M1449.52 1546.33C1463.15 1546.33 1474.2 1535.29 1474.2 1521.66C1474.2 1508.03 1463.15 1496.98 1449.52 1496.98C1435.89 1496.98 1424.85 1508.03 1424.85 1521.66C1424.85 1535.29 1435.89 1546.33 1449.52 1546.33Z" fill="#E3E3E3" stroke="#333333" stroke-width="2"/>
<path d="M1449.52 1640.56C1463.15 1640.56 1474.2 1629.51 1474.2 1615.88C1474.2 1602.25 1463.15 1591.21 1449.52 1591.21C1435.89 1591.21 1424.85 1602.25 1424.85 1615.88C1424.85 1629.51 1435.89 1640.56 1449.52 1640.56Z" fill="#E3E3E3" stroke="#333333" stroke-width="2"/>
<path d="M1449.52 1734.79C1463.15 1734.79 1474.2 1723.74 1474.2 1710.11C1474.2 1696.48 1463.15 1685.43 1449.52 1685.43C1435.89 1685.43 1424.85 1696.48 1424.85 1710.11C1424.85 1723.74 1435.89 1734.79 1449.52 1734.79Z" fill="#E3E3E3" stroke="#333333" stroke-width="2"/>
<path d="M1449.52 1829.02C1463.15 1829.02 1474.2 1817.97 1474.2 1804.34C1474.2 1790.71 1463.15 1779.66 1449.52 1779.66C1435.89 1779.66 1424.85 1790.71 1424.85 1804.34C1424.85 1817.97 1435.89 1829.02 1449.52 1829.02Z" fill="#E3E3E3" stroke="#333333" stroke-width="2"/>
<path d="M1449.52 1923.25C1463.15 1923.25 1474.2 1912.2 1474.2 1898.57C1474.2 1884.94 1463.15 1873.89 1449.52 1873.89C1435.89 1873.89 1424.85 1884.94 1424.85 1898.57C1424.85 1912.2 1435.89 1923.25 1449.52 1923.25Z" fill="#E3E3E3" stroke="#333333" stroke-width="2"/>
<path d="M1449.52 2017.48C1463.15 2017.48 1474.2 2006.43 1474.2 1992.8C1474.2 1979.17 1463.15 1968.12 1449.52 1968.12C1435.89 1968.12 1424.85 1979.17 1424.85 1992.8C1424.85 2006.43 1435.89 2017.48 1449.52 2017.48Z" fill="#E3E3E3" stroke="#333333" stroke-width="2"/>
<path d="M1449.52 2111.71C1463.15 2111.71 1474.2 2100.66 1474.2 2087.03C1474.2 2073.4 1463.15 2062.35 1449.52 2062.35C1435.89 2062.35 1424.85 2073.4 1424.85 2087.03C1424.85 2100.66 1435.89 2111.71 1449.52 2111.71Z" fill="#E3E3E3" stroke="#333333" stroke-width="2"/>
<path d="M1974.51 509.816C1988.14 509.816 1999.19 498.767 1999.19 485.137C1999.19 471.507 1988.14 460.458 1974.51 460.458C1960.88 460.458 1949.83 471.507 1949.83 485.137C1949.83 498.767 1960.88 509.816 1974.51 509.816Z" fill="#E3E3E3" stroke="#333333" stroke-width="2"/>
<path d="M1974.51 604.045C1988.14 604.045 1999.19 592.996 1999.19 579.366C1999.19 565.736 1988.14 554.687 1974.51 554.687C1960.88 554.687 1949.83 565.736 1949.83 579.366C1949.83 592.996 1960.88 604.045 1974.51 604.045Z" fill="#E3E3E3" stroke="#333333" stroke-width="2"/>
<path d="M1974.51 698.274C1988.14 698.274 1999.19 687.225 1999.19 673.595C1999.19 659.965 1988.14 648.916 1974.51 648.916C1960.88 648.916 1949.83 659.965 1949.83 673.595C1949.83 687.225 1960.88 698.274 1974.51 698.274Z" fill="#E3E3E3" stroke="#333333" stroke-width="2"/>
<path d="M1974.51 792.503C1988.14 792.503 1999.19 781.454 1999.19 767.824C1999.19 754.194 1988.14 743.145 1974.51 743.145C1960.88 743.145 1949.83 754.194 1949.83 767.824C1949.83 781.454 1960.88 792.503 1974.51 792.503Z" fill="#E3E3E3" stroke="#333333" stroke-width="2"/>
<path d="M1974.51 886.732C1988.14 886.732 1999.19 875.683 1999.19 862.053C1999.19 848.423 1988.14 837.374 1974.51 837.374C1960.88 837.374 1949.83 848.423 1949.83 862.053C1949.83 875.683 1960.88 886.732 1974.51 886.732Z" fill="#E3E3E3" stroke="#333333" stroke-width="2"/>
<path d="M1974.51 980.961C1988.14 980.961 1999.19 969.912 1999.19 956.282C1999.19 942.652 1988.14 931.603 1974.51 931.603C1960.88 931.603 1949.83 942.652 1949.83 956.282C1949.83 969.912 1960.88 980.961 1974.51 980.961Z" fill="#E3E3E3" stroke="#333333" stroke-width="2"/>
<path d="M1974.51 1075.19C1988.14 1075.19 1999.19 1064.14 1999.19 1050.51C1999.19 1036.88 1988.14 1025.83 1974.51 1025.83C1960.88 1025.83 1949.83 1036.88 1949.83 1050.51C1949.83 1064.14 1960.88 1075.19 1974.51 1075.19Z" fill="#E3E3E3" stroke="#333333" stroke-width="2"/>
<path d="M1974.51 1169.42C1988.14 1169.42 1999.19 1158.37 1999.19 1144.74C1999.19 1131.11 1988.14 1120.06 1974.51 1120.06C1960.88 1120.06 1949.83 1131.11 1949.83 1144.74C1949.83 1158.37 1960.88 1169.42 1974.51 1169.42Z" fill="#E3E3E3" stroke="#333333" stroke-width="2"/>
<path d="M1974.51 1263.65C1988.14 1263.65 1999.19 1252.6 1999.19 1238.97C1999.19 1225.34 1988.14 1214.29 1974.51 1214.29C1960.88 1214.29 1949.83 1225.34 1949.83 1238.97C1949.83 1252.6 1960.88 1263.65 1974.51 1263.65Z" fill="#E3E3E3" stroke="#333333" stroke-width="2"/>
<path d="M1974.51 1357.88C1988.14 1357.88 1999.19 1346.83 1999.19 1333.2C1999.19 1319.57 1988.14 1308.52 1974.51 1308.52C1960.88 1308.52 1949.83 1319.57 1949.83 1333.2C1949.83 1346.83 1960.88 1357.88 1974.51 1357.88Z" fill="#E3E3E3" stroke="#333333" stroke-width="2"/>
<path d="M1974.51 1452.11C1988.14 1452.11 1999.19 1441.06 1999.19 1427.43C1999.19 1413.8 1988.14 1402.75 1974.51 1402.75C1960.88 1402.75 1949.83 1413.8 1949.83 1427.43C1949.83 1441.06 1960.88 1452.11 1974.51 1452.11Z" fill="#E3E3E3" stroke="#333333" stroke-width="2"/>
<path d="M1974.51 1546.33C1988.14 1546.33 1999.19 1535.29 1999.19 1521.66C1999.19 1508.03 1988.14 1496.98 1974.51 1496.98C1960.88 1496.98 1949.83 1508.03 1949.83 1521.66C1949.83 1535.29 1960.88 1546.33 1974.51 1546.33Z" fill="#E3E3E3" stroke="#333333" stroke-width="2"/>
<path d="M1974.51 1640.56C1988.14 1640.56 1999.19 1629.51 1999.19 1615.88C1999.19 1602.25 1988.14 1591.21 1974.51 1591.21C1960.88 1591.21 1949.83 1602.25 1949.83 1615.88C1949.83 1629.51 1960.88 1640.56 1974.51 1640.56Z" fill="#E3E3E3" stroke="#333333" stroke-width="2"/>
<path d="M1974.51 1734.79C1988.14 1734.79 1999.19 1723.74 1999.19 1710.11C1999.19 1696.48 1988.14 1685.43 1974.51 1685.43C1960.88 1685.43 1949.83 1696.48 1949.83 1710.11C1949.83 1723.74 1960.88 1734.79 1974.51 1734.79Z" fill="#E3E3E3" stroke="#333333" stroke-width="2"/>
<path d="M1974.51 1829.02C1988.14 1829.02 1999.19 1817.97 1999.19 1804.34C1999.19 1790.71 1988.14 1779.66 1974.51 1779.66C1960.88 1779.66 1949.83 1790.71 1949.83 1804.34C1949.83 1817.97 1960.88 1829.02 1974.51 1829.02Z" fill="#E3E3E3" stroke="#333333" stroke-width="2"/>
<path d="M1974.51 1923.25C1988.14 1923.25 1999.19 1912.2 1999.19 1898.57C1999.19 1884.94 1988.14 1873.89 1974.51 1873.89C1960.88 1873.89 1949.83 1884.94 1949.83 1898.57C1949.83 1912.2 1960.88 1923.25 1974.51 1923.25Z" fill="#E3E3E3" stroke="#333333" stroke-width="2"/>
<path d="M2499.5 698.274C2513.13 698.274 2524.18 687.225 2524.18 673.595C2524.18 659.965 2513.13 648.916 2499.5 648.916C2485.87 648.916 2474.83 659.965 2474.83 673.595C2474.83 687.225 2485.87 698.274 2499.5 698.274Z" fill="#E3E3E3" stroke="#333333" stroke-width="2"/>
<path d="M2499.5 792.503C2513.13 792.503 2524.18 781.454 2524.18 767.824C2524.18 754.194 2513.13 743.145 2499.5 743.145C2485.87 743.145 2474.83 754.194 2474.83 767.824C2474.83 781.454 2485.87 792.503 2499.5 792.503Z" fill="#E3E3E3" stroke="#333333" stroke-width="2"/>
<path d="M2499.5 886.732C2513.13 886.732 2524.18 875.683 2524.18 862.053C2524.18 848.423 2513.13 837.374 2499.5 837.374C2485.87 837.374 2474.83 848.423 2474.83 862.053C2474.83 875.683 2485.87 886.732 2499.5 886.732Z" fill="#E3E3E3" stroke="#333333" stroke-width="2"/>
<path d="M2499.5 980.961C2513.13 980.961 2524.18 969.912 2524.18 956.282C2524.18 942.652 2513.13 931.603 2499.5 931.603C2485.87 931.603 2474.83 942.652 2474.83 956.282C2474.83 969.912 2485.87 980.961 2499.5 980.961Z" fill="#E3E3E3" stroke="#333333" stroke-width="2"/>
<path d="M2499.5 1075.19C2513.13 1075.19 2524.18 1064.14 2524.18 1050.51C2524.18 1036.88 2513.13 1025.83 2499.5 1025.83C2485.87 1025.83 2474.83 1036.88 2474.83 1050.51C2474.83 1064.14 2485.87 1075.19 2499.5 1075.19Z" fill="#E3E3E3" stroke="#333333" stroke-width="2"/>
<path d="M2499.5 1169.42C2513.13 1169.42 2524.18 1158.37 2524.18 1144.74C2524.18 1131.11 2513.13 1120.06 2499.5 1120.06C2485.87 1120.06 2474.83 1131.11 2474.83 1144.74C2474.83 1158.37 2485.87 1169.42 2499.5 1169.42Z" fill="#E3E3E3" stroke="#333333" stroke-width="2"/>
<path d="M2499.5 1263.65C2513.13 1263.65 2524.18 1252.6 2524.18 1238.97C2524.18 1225.34 2513.13 1214.29 2499.5 1214.29C2485.87 1214.29 2474.83 1225.34 2474.83 1238.97C2474.83 1252.6 2485.87 1263.65 2499.5 1263.65Z" fill="#E3E3E3" stroke="#333333" stroke-width="2"/>
<path d="M2499.5 1357.88C2513.13 1357.88 2524.18 1346.83 2524.18 1333.2C2524.18 1319.57 2513.13 1308.52 2499.5 1308.52C2485.87 1308.52 2474.83 1319.57 2474.83 1333.2C2474.83 1346.83 2485.87 1357.88 2499.5 1357.88Z" fill="#E3E3E3" stroke="#333333" stroke-width="2"/>
<path d="M2499.5 1452.11C2513.13 1452.11 2524.18 1441.06 2524.18 1427.43C2524.18 1413.8 2513.13 1402.75 2499.5 1402.75C2485.87 1402.75 2474.83 1413.8 2474.83 1427.43C2474.83 1441.06 2485.87 1452.11 2499.5 1452.11Z" fill="#E3E3E3" stroke="#333333" stroke-width="2"/>
<path d="M2499.5 1546.33C2513.13 1546.33 2524.18 1535.29 2524.18 1521.66C2524.18 1508.03 2513.13 1496.98 2499.5 1496.98C2485.87 1496.98 2474.83 1508.03 2474.83 1521.66C2474.83 1535.29 2485.87 1546.33 2499.5 1546.33Z" fill="#E3E3E3" stroke="#333333" stroke-width="2"/>
<path d="M2499.5 1640.56C2513.13 1640.56 2524.18 1629.51 2524.18 1615.88C2524.18 1602.25 2513.13 1591.21 2499.5 1591.21C2485.87 1591.21 2474.83 1602.25 2474.83 1615.88C2474.83 1629.51 2485.87 1640.56 2499.5 1640.56Z" fill="#E3E3E3" stroke="#333333" stroke-width="2"/>
<path d="M2499.5 1734.79C2513.13 1734.79 2524.18 1723.74 2524.18 1710.11C2524.18 1696.48 2513.13 1685.43 2499.5 1685.43C2485.87 1685.43 2474.83 1696.48 2474.83 1710.11C2474.83 1723.74 2485.87 1734.79 2499.5 1734.79Z" fill="#E3E3E3" stroke="#333333" stroke-width="2"/>
<path d="M3024.49 886.732C3038.12 886.732 3049.17 875.683 3049.17 862.053C3049.17 848.423 3038.12 837.374 3024.49 837.374C3010.86 837.374 2999.82 848.423 2999.82 862.053C2999.82 875.683 3010.86 886.732 3024.49 886.732Z" fill="#E3E3E3" stroke="#333333" stroke-width="2"/>
<path d="M3024.49 980.961C3038.12 980.961 3049.17 969.912 3049.17 956.282C3049.17 942.652 3038.12 931.603 3024.49 931.603C3010.86 931.603 2999.82 942.652 2999.82 956.282C2999.82 969.912 3010.86 980.961 3024.49 980.961Z" fill="#E3E3E3" stroke="#333333" stroke-width="2"/>
<path d="M3024.49 1075.19C3038.12 1075.19 3049.17 1064.14 3049.17 1050.51C3049.17 1036.88 3038.12 1025.83 3024.49 1025.83C3010.86 1025.83 2999.82 1036.88 2999.82 1050.51C2999.82 1064.14 3010.86 1075.19 3024.49 1075.19Z" fill="#E3E3E3" stroke="#333333" stroke-width="2"/>
<path d="M3024.49 1169.42C3038.12 1169.42 3049.17 1158.37 3049.17 1144.74C3049.17 1131.11 3038.12 1120.06 3024.49 1120.06C3010.86 1120.06 2999.82 1131.11 2999.82 1144.74C2999.82 1158.37 3010.86 1169.42 3024.49 1169.42Z" fill="#E3E3E3" stroke="#333333" stroke-width="2"/>
<path d="M3024.49 1263.65C3038.12 1263.65 3049.17 1252.6 3049.17 1238.97C3049.17 1225.34 3038.12 1214.29 3024.49 1214.29C3010.86 1214.29 2999.82 1225.34 2999.82 1238.97C2999.82 1252.6 3010.86 1263.65 3024.49 1263.65Z" fill="#E3E3E3" stroke="#333333" stroke-width="2"/>
<path d="M3024.49 1357.88C3038.12 1357.88 3049.17 1346.83 3049.17 1333.2C3049.17 1319.57 3038.12 1308.52 3024.49 1308.52C3010.86 1308.52 2999.82 1319.57 2999.82 1333.2C2999.82 1346.83 3010.86 1357.88 3024.49 1357.88Z" fill="#E3E3E3" stroke="#333333" stroke-width="2"/>
<path d="M3024.49 1452.11C3038.12 1452.11 3049.17 1441.06 3049.17 1427.43C3049.17 1413.8 3038.12 1402.75 3024.49 1402.75C3010.86 1402.75 2999.82 1413.8 2999.82 1427.43C2999.82 1441.06 3010.86 1452.11 3024.49 1452.11Z" fill="#E3E3E3" stroke="#333333" stroke-width="2"/>
<path d="M3024.49 1546.33C3038.12 1546.33 3049.17 1535.29 3049.17 1521.66C3049.17 1508.03 3038.12 1496.98 3024.49 1496.98C3010.86 1496.98 2999.82 1508.03 2999.82 1521.66C2999.82 1535.29 3010.86 1546.33 3024.49 1546.33Z" fill="#E3E3E3" stroke="#333333" stroke-width="2"/>
<path d="M3549.48 980.961C3563.11 980.961 3574.16 969.912 3574.16 956.282C3574.16 942.652 3563.11 931.603 3549.48 931.603C3535.85 931.603 3524.81 942.652 3524.81 956.282C3524.81 969.912 3535.85 980.961 3549.48 980.961Z" fill="#E3E3E3" stroke="#333333" stroke-width="2"/>
<path d="M3549.48 1075.19C3563.11 1075.19 3574.16 1064.14 3574.16 1050.51C3574.16 1036.88 3563.11 1025.83 3549.48 1025.83C3535.85 1025.83 3524.81 1036.88 3524.81 1050.51C3524.81 1064.14 3535.85 1075.19 3549.48 1075.19Z" fill="#E3E3E3" stroke="#333333" stroke-width="2"/>
<path d="M3549.48 1169.42C3563.11 1169.42 3574.16 1158.37 3574.16 1144.74C3574.16 1131.11 3563.11 1120.06 3549.48 1120.06C3535.85 1120.06 3524.81 1131.11 3524.81 1144.74C3524.81 1158.37 3535.85 1169.42 3549.48 1169.42Z" fill="#E3E3E3" stroke="#333333" stroke-width="2"/>
<path d="M3549.48 1263.65C3563.11 1263.65 3574.16 1252.6 3574.16 1238.97C3574.16 1225.34 3563.11 1214.29 3549.48 1214.29C3535.85 1214.29 3524.81 1225.34 3524.81 1238.97C3524.81 1252.6 3535.85 1263.65 3549.48 1263.65Z" fill="#E3E3E3" stroke="#333333" stroke-width="2"/>
<path d="M3549.48 1357.88C3563.11 1357.88 3574.16 1346.83 3574.16 1333.2C3574.16 1319.57 3563.11 1308.52 3549.48 1308.52C3535.85 1308.52 3524.81 1319.57 3524.81 1333.2C3524.81 1346.83 3535.85 1357.88 3549.48 1357.88Z" fill="#E3E3E3" stroke="#333333" stroke-width="2"/>
<path d="M3549.48 1452.11C3563.11 1452.11 3574.16 1441.06 3574.16 1427.43C3574.16 1413.8 3563.11 1402.75 3549.48 1402.75C3535.85 1402.75 3524.81 1413.8 3524.81 1427.43C3524.81 1441.06 3535.85 1452.11 3549.48 1452.11Z" fill="#E3E3E3" stroke="#333333" stroke-width="2"/>
<path d="M4074.47 1216.53C4088.1 1216.53 4099.15 1205.48 4099.15 1191.85C4099.15 1178.22 4088.1 1167.18 4074.47 1167.18C4060.84 1167.18 4049.79 1178.22 4049.79 1191.85C4049.79 1205.48 4060.84 1216.53 4074.47 1216.53Z" fill="#E3E3E3" stroke="#333333" stroke-width="2"/>
<path d="M510 1395C365 1438.5 365 1322.5 307 1308M713 1482V1369.77C714.088 1355.94 712.22 1342.04 707.519 1328.99C702.819 1315.94 695.395 1304.04 685.74 1294.08C776.8 1283.93 872.5 1249.42 872.5 1091.08C872.493 1050.59 856.918 1011.65 829 982.33C842.22 946.907 841.285 907.752 826.39 873C826.39 873 792.17 862.85 713 915.92C646.532 897.906 576.468 897.906 510 915.92C430.83 862.85 396.61 873 396.61 873C381.715 907.752 380.78 946.907 394 982.33C365.874 1011.87 350.283 1051.16 350.5 1091.95C350.5 1249.13 446.2 1283.64 537.26 1294.95C527.719 1304.81 520.361 1316.57 515.664 1329.46C510.967 1342.35 509.037 1356.08 510 1369.77V1482" stroke="#1E1E1E" stroke-width="44" stroke-linecap="round" stroke-linejoin="round"/>
<path d="M1236.9 1192.88C1237.83 1190.66 1235.15 1189.44 1227.6 1188.67C1224.03 1188.28 1217.97 1187.51 1214.12 1186.92C1204.63 1185.43 1201.94 1185.89 1204.48 1188.45C1207.4 1191.34 1235.87 1195.26 1236.9 1192.88Z" fill="black"/>
<path d="M1196.38 1188.68C1200.55 1189.19 1201.58 1184.54 1182.73 1182.32C1170.36 1180.87 1166.24 1180.98 1166.24 1182.87C1166.23 1186.43 1185.45 1187.31 1196.38 1188.68Z" fill="black"/>
<path d="M1281.33 1187.49C1281.84 1187.33 1279.52 1189.71 1276.18 1192.8C1268.98 1199.49 1267.22 1201.58 1268.14 1202.59C1269.25 1203.8 1272.45 1204.61 1273.88 1204.06C1274.39 1203.86 1276.81 1201.85 1279.27 1199.6C1284.47 1194.75 1293.14 1187.48 1297.09 1184.64C1302.56 1180.72 1303.54 1179.75 1303.03 1179.04C1301.83 1177.28 1300.67 1177.15 1283.9 1177.24C1271.17 1177.29 1266.77 1177.16 1262.37 1176.6C1252.09 1175.32 1251.16 1175.23 1249.91 1175.44C1241.94 1176.8 1260.27 1180.91 1275.23 1181.11C1278.24 1181.16 1280.51 1181.33 1280.33 1181.5C1279.63 1182.09 1264.24 1186.16 1255.35 1188.15C1245.47 1190.38 1244.5 1190.68 1244.5 1191.85C1244.49 1196.54 1260.38 1194.65 1281.33 1187.49Z" fill="black"/>
<path d="M1035.88 1207.78C1037.17 1208.79 1037.96 1208.88 1040.37 1208.25C1044.17 1207.26 1057.34 1199.54 1057.35 1198.32C1057.36 1194.18 1044.05 1197.79 1037.79 1203.64C1034.86 1206.31 1034.68 1206.82 1035.88 1207.78Z" fill="black"/>
<path d="M1076.58 1194.06C1092.62 1188.77 1091.74 1189.23 1090.03 1187.38C1087.53 1184.7 1072.75 1187.3 1067.28 1191.39C1063.1 1194.44 1069.63 1196.34 1076.58 1194.06Z" fill="black"/>
<path d="M1152.2 1184.51C1159.01 1184.24 1159.33 1184.11 1158.32 1182.52C1156.33 1179.24 1136 1178.11 1132.71 1181.07C1129.32 1184.12 1135.43 1185.23 1152.2 1184.51Z" fill="black"/>
<path d="M1107.17 1186.67C1107.4 1186.59 1111.48 1185.84 1116.16 1185.06C1126.08 1183.4 1126.91 1182.95 1123.12 1181.18C1118.86 1179.2 1097.68 1182.37 1097.68 1185.01C1097.67 1186.52 1104.39 1187.71 1107.17 1186.67Z" fill="black"/>
</svg>
