<svg width="203" height="203" viewBox="0 0 203 203" fill="none" xmlns="http://www.w3.org/2000/svg">
<g clip-path="url(#clip0_2214_189)">
<path d="M114.84 101.359L134.63 123.98L161.243 140.985L165.872 101.502L161.243 62.9087L134.12 77.847L114.84 101.359Z" fill="#535353"/>
<path d="M0.000488281 137.31V170.956C0.000488281 178.639 6.23583 184.876 13.92 184.876H47.5658L54.5329 159.454L47.5658 137.31L24.4825 130.343L0.000488281 137.31Z" fill="#535353"/>
<path d="M47.5653 17.8418L0 65.4071L24.4835 72.358L47.5653 65.4071L54.4058 43.565L47.5653 17.8418Z" fill="#6C6B6B"/>
<path d="M0.000488281 137.326H47.5658V65.4066H0.000488281V137.326Z" fill="#7B7B7B"/>
<path d="M191.628 37.9815L161.243 62.9096V140.985L191.754 166.01C196.322 169.588 203.003 166.326 203.003 160.521V43.3585C203.003 37.4882 196.163 34.2432 191.628 37.9815Z" fill="#6C6B6B"/>
<path d="M114.84 101.359V137.31H47.5659V184.876H147.324C155.008 184.876 161.244 178.639 161.244 170.956V140.985L114.84 101.359Z" fill="#6C6B6B"/>
<path d="M147.324 17.8418H47.5659V65.4071H114.84V101.359L161.244 62.9085V31.7613C161.244 24.0771 155.008 17.8418 147.324 17.8418Z" fill="#7B7B7B"/>
</g>
<defs>
<clipPath id="clip0_2214_189">
<rect width="203" height="203" fill="white"/>
</clipPath>
</defs>
</svg>
