<?xml version="1.0" encoding="UTF-8"?>
<svg id="Layer_3" data-name="Layer 3" xmlns="http://www.w3.org/2000/svg" viewBox="0 0 893 692.26">
  <defs>
    <style>
      .cls-1 {
        fill: #e6e6e6;
      }

      .cls-1, .cls-2 {
        stroke-width: 0px;
      }

      .cls-2 {
        fill: gray;
      }
    </style>
  </defs>
  <path class="cls-1" d="M440.41,376.95c0,20.53-1.54,39.46-7.41,58.05l-35.65-45.96c-1.88-2.98-3.32-5.71-4.33-8.18h-1.39v-16.14h1.39c2.6-5.19,6.49-11.22,11.68-18.09l25.48-32.29c6.63,19.66,10.23,40.71,10.23,62.61Z"/>
  <path class="cls-1" d="M631.9,161.6l-172.41,206.46,169.03,212.54h-84.26l-139.84-181.66c-2.81-3.56-5.17-6.86-7.07-9.9l35.65,45.96c5.87-18.59,7.41-37.52,7.41-58.05,0-21.9-3.6-42.95-10.23-62.61l120.52-152.74h81.2Z"/>
  <path class="cls-1" d="M419.5,464.5l.21.1c-7.34,14.62-16.47,28.2-27.1,40.44l-31.05-38.2c9.78-13,17.42-27.77,22.44-43.84l.5.5,35,41Z"/>
  <path class="cls-1" d="M312.06,508.44l29.99,38.23c-28.63,16.43-61.82,25.83-97.19,25.83-10.72,0-21.23-.86-31.48-2.52v-48.79c10.02,2.16,20.43,3.3,31.11,3.3,24.47,0,47.42-5.75,67.57-16.05Z"/>
  <path class="cls-1" d="M146.58,487.14v58.9c-58.17-33.88-97.27-96.92-97.27-169.09s39.1-135.21,97.27-169.09v59.99c-30.12,26.92-49.08,66.07-49.08,109.64s18.96,82.73,49.08,109.65Z"/>
  <path class="cls-1" d="M213.38,183.92v49.88c-25.31,5.45-48.19,17.42-66.8,34.05v-59.99c20.24-11.79,42.78-20.05,66.8-23.94Z"/>
  <path class="cls-1" d="M338.79,205.4l-31.23,39.27c-19.11-9.08-40.5-14.17-63.07-14.17-10.68,0-21.09,1.14-31.11,3.3v-49.88c10.25-1.66,20.76-2.52,31.48-2.52,34.04,0,66.05,8.7,93.93,24Z"/>
  <path class="cls-1" d="M386.44,242.06l-31.79,38.1c-3.79-4.28-7.83-8.35-12.1-12.17,7.62-14.81,16.77-28.7,27.25-41.47,5.84,4.85,11.39,10.04,16.64,15.54Z"/>
  <path class="cls-1" d="M369.8,226.52c-10.48,12.77-19.63,26.66-27.25,41.47-10.43-9.35-22.2-17.23-34.99-23.32l31.23-39.27c11.03,6.05,21.41,13.13,31.01,21.12Z"/>
  <path class="cls-1" d="M430.18,314.34l-25.48,32.29c-5.19,6.87-9.08,12.9-11.68,18.09h-1.39v16.14h1.39c1.01,2.47,2.45,5.2,4.33,8.18l-5.91-7.61c.03-1.31.05-2.62.05-3.94,0-.96,0-1.92-.03-2.88-.7-36.2-14.48-69.19-36.81-94.45l31.79-38.1c19.44,20.39,34.51,44.99,43.74,72.28Z"/>
  <path class="cls-2" d="M213.38,521.19v48.79c-24.02-3.89-46.56-12.15-66.8-23.94v-58.9c18.61,16.63,41.49,28.6,66.8,34.05Z"/>
  <path class="cls-2" d="M463.81,592.65l.69.85-86.36-.83-36.09-46c10.51-6.03,20.42-13.01,29.59-20.84,24.58,29.23,56.17,52.37,92.17,66.82Z"/>
  <path class="cls-2" d="M392.61,505.04l71.2,87.61c-36-14.45-67.59-37.59-92.17-66.82,7.51-6.39,14.52-13.34,20.97-20.79Z"/>
  <path class="cls-2" d="M454.5,160.5l-1.3,1.56c-32.5,14.95-60.98,37.13-83.4,64.46-9.6-7.99-19.98-15.07-31.01-21.12l35.71-44.9h80Z"/>
  <path class="cls-2" d="M453.2,162.06l-66.76,80c-5.25-5.5-10.8-10.69-16.64-15.54,22.42-27.33,50.9-49.51,83.4-64.46Z"/>
  <path class="cls-2" d="M361.56,466.84l31.05,38.2c-6.45,7.45-13.46,14.4-20.97,20.79-10.37-12.33-19.49-25.74-27.16-40.05,6.24-5.78,11.95-12.11,17.08-18.94Z"/>
  <path class="cls-2" d="M344.48,485.78c7.67,14.31,16.79,27.72,27.16,40.05-9.17,7.83-19.08,14.81-29.59,20.84l-29.99-38.23c11.87-6.06,22.77-13.69,32.42-22.66Z"/>
  <path class="cls-2" d="M320.29,416.06l41.27,50.78c-5.13,6.83-10.84,13.16-17.08,18.94-11.53-21.46-19.81-44.92-24.19-69.72Z"/>
  <path class="cls-2" d="M354.65,280.16l-30.65,36.73c4.37-17.14,10.64-33.51,18.55-48.9,4.27,3.82,8.31,7.89,12.1,12.17Z"/>
  <path class="cls-2" d="M344.48,485.78c-9.65,8.97-20.55,16.6-32.42,22.66l-14.57-18.58c-15.73-34.89-24.49-73.6-24.49-114.36,0-44.46,10.42-86.49,28.95-123.77,0-.01,0-.02.01-.02l5.6-7.04c12.79,6.09,24.56,13.97,34.99,23.32-7.91,15.39-14.18,31.76-18.55,48.9l-42.71,51.18,39,47.99c4.38,24.8,12.66,48.26,24.19,69.72Z"/>
  <path class="cls-2" d="M226.46,346.64l75.49-94.91c-18.53,37.28-28.95,79.31-28.95,123.77,0,40.76,8.76,79.47,24.49,114.36l-71.31-90.9c-5.56-7.05-9.37-13.08-11.41-18.09h-1.39v140.32c-25.31-5.45-48.19-17.42-66.8-34.05v-219.29c18.61-16.63,41.49-28.6,66.8-34.05v130.93h1.39c2.6-5.2,6.49-11.23,11.69-18.09Z"/>
  <path class="cls-2" d="M213.38,569.98v22.69h-66.8v-46.63c20.24,11.79,42.78,20.05,66.8,23.94Z"/>
  <path class="cls-2" d="M213.38,161.55v22.37c-24.02,3.89-46.56,12.15-66.8,23.94v-46.31h66.8Z"/>
</svg>