<?xml version="1.0" encoding="UTF-8"?>
<svg id="Layer_1" data-name="Layer 1" xmlns="http://www.w3.org/2000/svg" version="1.1" xmlns:xlink="http://www.w3.org/1999/xlink" viewBox="0 0 1279 898">
  <defs>
    <style>
      .cls-1 {
        fill: url(#linear-gradient);
      }

      .cls-1, .cls-2, .cls-3 {
        stroke-width: 0px;
      }

      .cls-2 {
        fill: none;
      }

      .cls-3 {
        fill: url(#linear-gradient-2);
      }
    </style>
    <linearGradient id="linear-gradient" x1="81.5" y1="452.4" x2="939.1" y2="452.4" gradientUnits="userSpaceOnUse">
      <stop offset="0" stop-color="#f3f4f4"/>
      <stop offset="1" stop-color="#c2c4c6"/>
    </linearGradient>
    <linearGradient id="linear-gradient-2" x1="333.2" y1="422" x2="1189.7" y2="422" gradientTransform="translate(0 900) scale(1 -1)" gradientUnits="userSpaceOnUse">
      <stop offset="0" stop-color="#c0c2c4"/>
      <stop offset="1" stop-color="#eff2f4"/>
    </linearGradient>
  </defs>
  <path class="cls-2" d="M1279,898H0V0h1279v898ZM802.2,375.3c-.5.2-.9.4-1.4.6-1.1-1.4-2.3-2.7-3.3-4.1-31.9-43.6-66.3-85.2-101.5-126.2-30.6-35.7-65.9-65.4-107.7-87.2-59.3-31-122.4-43.5-189-38.1-53.3,4.3-103.1,20.3-149,47.9-59.7,36-105,85.4-135,148.3-33.9,70.9-42.4,145.3-25,221.7,25.6,112.9,92.3,193.4,196.8,242.7,3.8,1.8,7.8,3.2,11.7,4.8,0-1.3-.4-1.8-.9-2.1-19.9-13.5-36.5-30.5-52.1-48.7-26.7-31.2-50.3-64.8-70.3-100.7-48.5-86.9-52-175.6-7.7-265.1,23.7-47.9,59.6-85.4,105.5-112.8,56.6-33.7,117.7-46.2,183-36.3,50.8,7.7,95.9,28.1,135.5,60.9,26.6,21.9,48.1,48.5,68.8,75.7,36.3,47.7,67.4,98.8,96.4,151.1,1.8,3.3,2,5.2-.9,8-22,21.8-43.9,43.8-65.8,65.7-6.6,6.6-13.2,13.1-19.8,19.6.8,1.2,1.1,1.8,1.6,2.2,18.2,20.2,39,37.2,62.8,50.5,4.4,2.4,6.9,2.4,10.5-1.4,17-17.4,34.3-34.5,51.5-51.7,1.3-1.3,2.8-2.5,5-4.5.2,2.8.4,4.4.4,6,0,24.2,0,48.3,0,72.5,0,3.3.6,5.1,4.3,5.8,30.9,6,61.9,6.8,93,1.6,6.9-1.2,7-1.3,7-8.5,0-111.2,0-222.3,0-333.5,0-29.3,0-58.7.3-88,.1-12,5.4-21.9,14.5-29.6,4.8-4.1,9.9-7.8,14.8-11.9,1.4-1.2,2.2-3,3.2-4.5-1.7-.4-3.4-.8-5.1-1.2-.5-.1-1,0-1.5,0-42.7,0-85.3,0-128,0-10.2,0-20.3,0-30.5,0-1.2,0-2.4.7-3.6,1.1.7,1.2,1,2.7,2,3.5,3.4,2.9,7,5.7,10.6,8.4,13.2,9.7,19.4,22.6,19.2,39.1-.3,37.2,0,74.3,0,111.5v6.9h0ZM469.8,553.6c.7-.5,1.4-.9,2-1.4.8,1.4,1.3,3,2.3,4.3,23.8,30.4,47.4,61.1,71.7,91.1,21.1,26,42.4,51.9,67.6,74.3,59.6,53,129.3,82.3,208.8,87.6,33.8,2.2,67.5-.3,100.7-8.3,54.9-13.3,104-38,146.7-75,42.2-36.6,74.4-80.5,94.8-132.5,34.9-88.8,33.6-177.6-3.6-265.3-30.4-71.8-81-126.2-148.5-164.9-11.3-6.5-23.4-11.8-35.1-17.6-.2.4-.4.7-.6,1.1.7.6,1.4,1.1,2.1,1.8,13.1,12,27.1,23.3,39.2,36.2,30.1,32.1,54.5,68.5,77.1,106.2,32.3,53.8,45.6,112.1,38.8,174.4-6.5,60.4-30.9,113.5-72.6,157.5-66.6,70.2-148.5,100.1-244.9,87.3-45-6-85.6-23.4-122.3-49.9-28.1-20.3-50.9-45.9-72.2-72.9-40.9-51.8-75.4-107.8-107.4-165.4-2.1-3.8-1.1-5.9,1.6-8.6,26.7-26.5,53.3-53.2,80-79.8,1.6-1.6,3.1-3.3,4.8-5.2-1.2-1.5-2.1-2.7-3.1-3.7-18-19.3-38.3-35.5-61.3-48.6-3.5-2-5.7-1.8-8.6,1.2-17.3,17.6-34.8,35-52.3,52.4-1.5,1.5-3.2,2.7-5.8,4.8-.3-3.5-.7-5.7-.7-7.9,0-23.5,0-47,0-70.5,0-3.7-.9-5.6-5-6.3-30.6-5.8-61.2-6.1-91.9-1.3-4.7.7-6.1,2.5-6.1,7.3.1,139.3,0,278.7.2,418,0,15.7-6.3,28-18.6,37.4-3.7,2.8-7.4,5.7-11.1,8.6-1.2,1-2.3,2.1-3.4,3.2.2.4.3.8.5,1.2h168.4c-2-2.2-3-3.4-4.2-4.4-3.6-2.9-7.4-5.7-11.1-8.6-11.7-9.1-17.7-21-17.7-35.8,0-38.7,0-77.3,0-116,0-1.9.4-3.8.6-5.7h0Z"/>
  <path class="cls-1" d="M802.2,375.3v-6.9c0-37.2-.2-74.3,0-111.5.1-16.5-6.1-29.4-19.2-39.1-3.6-2.7-7.2-5.4-10.6-8.4-1-.8-1.4-2.3-2-3.5,1.2-.4,2.4-1.1,3.6-1.1,10.2,0,20.3,0,30.5,0,42.7,0,85.3,0,128,0,.5,0,1,0,1.5,0,1.7.4,3.4.8,5.1,1.2-1.1,1.5-1.8,3.3-3.2,4.5-4.8,4.1-10,7.8-14.8,11.9-9.1,7.7-14.4,17.6-14.5,29.6-.3,29.3-.3,58.7-.3,88,0,111.2,0,222.3,0,333.5,0,7.2,0,7.3-7,8.5-31.1,5.2-62.1,4.4-93-1.6-3.7-.7-4.3-2.5-4.3-5.8.1-24.2,0-48.3,0-72.5,0-1.6-.2-3.2-.4-6-2.2,2-3.7,3.2-5,4.5-17.2,17.2-34.5,34.3-51.5,51.7-3.6,3.7-6.2,3.8-10.5,1.4-23.8-13.3-44.6-30.3-62.8-50.5-.4-.5-.7-1.1-1.6-2.2,6.6-6.5,13.3-13,19.8-19.6,21.9-21.9,43.8-43.9,65.8-65.7,2.9-2.8,2.7-4.7.9-8-29-52.4-60.1-103.4-96.4-151.1-20.7-27.2-42.2-53.7-68.8-75.7-39.6-32.7-84.8-53.1-135.5-60.9-65.3-10-126.4,2.6-183,36.3-45.9,27.3-81.7,64.9-105.5,112.8-44.4,89.5-40.8,178.2,7.7,265.1,20,35.9,43.6,69.4,70.3,100.7,15.5,18.1,32.1,35.2,52.1,48.7.5.3.9.8.9,2.1-3.9-1.6-7.9-3-11.7-4.8-104.5-49.4-171.2-129.9-196.8-242.7-17.3-76.4-8.8-150.8,25-221.7,30.1-62.9,75.3-112.3,135-148.3,45.9-27.6,95.7-43.6,149-47.9,66.5-5.3,129.7,7.2,189,38.1,41.8,21.8,77.1,51.6,107.7,87.2,35.2,41,69.6,82.6,101.5,126.2,1,1.4,2.2,2.7,3.3,4.1.5-.2.9-.4,1.4-.6h0Z"/>
  <path class="cls-3" d="M469.8,553.6c-.2,1.9-.6,3.8-.6,5.7,0,38.7,0,77.3,0,116,0,14.8,6,26.8,17.7,35.8,3.7,2.9,7.4,5.7,11.1,8.6,1.2,1,2.1,2.2,4.2,4.4h-168.4c-.2-.4-.3-.8-.5-1.2,1.1-1.1,2.2-2.2,3.4-3.2,3.7-2.9,7.4-5.7,11.1-8.6,12.3-9.4,18.6-21.7,18.6-37.4,0-139.3,0-278.7-.2-418,0-4.9,1.4-6.6,6.1-7.3,30.7-4.8,61.3-4.4,91.9,1.3,4.1.8,5,2.6,5,6.3-.1,23.5,0,47,0,70.5,0,2.2.4,4.4.7,7.9,2.6-2.1,4.3-3.3,5.8-4.8,17.5-17.4,35-34.8,52.3-52.4,2.9-2.9,5-3.2,8.6-1.2,22.9,13,43.3,29.3,61.3,48.6,1,1.1,1.9,2.3,3.1,3.7-1.7,1.8-3.2,3.6-4.8,5.2-26.6,26.6-53.3,53.3-80,79.8-2.7,2.7-3.7,4.8-1.6,8.6,32,57.6,66.5,113.6,107.4,165.4,21.3,27,44.1,52.6,72.2,72.9,36.7,26.5,77.3,43.9,122.3,49.9,96.4,12.8,178.3-17.1,244.9-87.3,41.8-44,66.1-97,72.6-157.5,6.7-62.3-6.5-120.6-38.8-174.4-22.6-37.7-47-74-77.1-106.2-12.1-13-26.1-24.2-39.2-36.2-.7-.6-1.4-1.2-2.1-1.8.2-.4.4-.7.6-1.1,11.7,5.8,23.8,11.1,35.1,17.6,67.6,38.6,118.1,93.1,148.5,164.9,37.2,87.7,38.4,176.6,3.6,265.3-20.4,52-52.6,95.9-94.8,132.5-42.7,37.1-91.8,61.7-146.7,75-33.1,8-66.8,10.6-100.7,8.3-79.5-5.2-149.2-34.6-208.8-87.6-25.1-22.4-46.5-48.2-67.6-74.3-24.3-30-47.9-60.7-71.7-91.1-1-1.3-1.6-2.9-2.3-4.3-.7.5-1.4.9-2,1.4h0Z"/>
</svg>