<?xml version="1.0" encoding="UTF-8"?>
<svg id="Layer_1" data-name="Layer 1" xmlns="http://www.w3.org/2000/svg" xmlns:xlink="http://www.w3.org/1999/xlink" viewBox="0 0 1279 898">
  <defs>
    <style>
      .cls-1 {
        fill: url(#linear-gradient);
      }

      .cls-1, .cls-2, .cls-3 {
        stroke-width: 0px;
      }

      .cls-2 {
        fill: url(#linear-gradient-2);
      }

      .cls-3 {
        fill: #fff;
      }
    </style>
    <linearGradient id="linear-gradient" x1="81.505" y1="452.4139" x2="939.1416" y2="452.4139" gradientUnits="userSpaceOnUse">
      <stop offset="0" stop-color="#bcbec0"/>
      <stop offset="1" stop-color="#414042"/>
    </linearGradient>
    <linearGradient id="linear-gradient-2" x1="333.2164" y1="478.0421" x2="1189.6656" y2="478.0421" gradientUnits="userSpaceOnUse">
      <stop offset="0" stop-color="#adafb2"/>
      <stop offset="1" stop-color="#252528"/>
    </linearGradient>
  </defs>
  <path class="cls-3" d="M1279,898H0V0h1279v898ZM802.2074,375.2917c-.4709.202-.9417.404-1.4126.6059-1.0956-1.3523-2.2515-2.6605-3.2779-4.0634-31.9087-43.6088-66.3345-85.1825-101.5239-126.1591-30.6259-35.6627-65.9372-65.3986-107.7212-87.2215-59.3068-30.9746-122.4351-43.47-188.967-38.1351-53.3269,4.2761-103.1157,20.2618-149.0147,47.907-59.7419,35.9829-104.9605,85.3846-135.0125,148.2729-33.8775,70.8938-42.3525,145.2782-25.0431,221.6701,25.5759,112.8746,92.303,193.356,196.7816,242.7436,3.7941,1.7936,7.7697,3.2034,11.6607,4.7921-.0163-1.2781-.4124-1.7794-.9169-2.1201-19.9373-13.4613-36.5431-30.518-52.0779-48.6586-26.7455-31.2319-50.3259-64.7706-70.3378-100.6535-48.4772-86.9233-52.0372-175.631-7.6788-265.0971,23.7419-47.8848,59.5517-85.4459,105.4684-112.7833,56.5862-33.6897,117.7104-46.2166,183.0356-36.2545,50.7595,7.7408,95.9193,28.1239,135.5479,60.8635,26.5644,21.9465,48.0816,48.457,68.7578,75.6733,36.2591,47.7278,67.3748,98.7724,96.4008,151.1405,1.8267,3.2957,1.9796,5.1705-.871,7.9888-22.0431,21.7941-43.8849,43.7916-65.8157,65.6993-6.5743,6.5675-13.2331,13.0506-19.8487,19.5679.8038,1.17,1.1181,1.7592,1.5521,2.2403,18.2303,20.2112,39.0397,37.1688,62.8453,50.4906,4.3743,2.448,6.9246,2.3548,10.5498-1.3702,16.9692-17.4366,34.2778-34.5432,51.4841-51.7487,1.3314-1.3312,2.8083-2.5168,5.0479-4.5086.1818,2.7991.3739,4.3884.3751,5.9779.0186,24.1661.061,48.3323-.0454,72.4979-.0145,3.2906.5734,5.0662,4.3113,5.7898,30.9131,5.9842,61.885,6.8041,92.9659,1.5783,6.9307-1.1651,6.9656-1.2751,6.9663-8.515.0098-111.1618-.009-222.3236.0123-333.4854.0056-29.3305-.0381-58.6626.2698-87.9906.1256-11.9672,5.3902-21.8709,14.4881-29.6104,4.8204-4.1007,9.9489-7.8391,14.7765-11.9318,1.3612-1.154,2.1504-2.9824,3.202-4.5016-1.6938-.3972-3.3827-.8182-5.0848-1.1763-.4789-.1007-.9968-.0168-1.4969-.017-42.6675-.0139-85.3351-.0294-128.0026-.0403-10.1668-.0026-20.3339-.0285-30.4998.068-1.202.0114-2.3972.7332-3.5956,1.1257.6572,1.1936,1.0498,2.697,2.0193,3.525,3.4183,2.9194,6.967,5.6989,10.5877,8.3665,13.1821,9.7119,19.3675,22.5786,19.2332,39.073-.3024,37.1634-.0949,74.3309-.0948,111.4967v6.8872ZM469.7814,553.5832c.6786-.4517,1.3572-.9034,2.0357-1.3552.7713,1.4465,1.3467,3.0467,2.3427,4.3171,23.8485,30.4193,47.389,61.0896,71.7344,91.107,21.0918,26.0056,42.4335,51.9005,67.5589,74.2512,59.5777,52.9985,129.2686,82.3428,208.783,87.5686,33.8453,2.2243,67.5206-.3119,100.6566-8.3354,54.9093-13.2958,103.9565-37.9628,146.7058-75.0128,42.2045-36.578,74.4053-80.5015,94.8101-132.4689,34.8568-88.7741,33.6093-177.6-3.5863-265.3291-30.4479-71.8143-80.989-126.2218-148.5438-164.8656-11.3456-6.4901-23.3801-11.7759-35.0963-17.6182-.2099.3625-.4199.7249-.6298,1.0874.7072.5823,1.4429,1.1336,2.1175,1.7516,13.1215,12.0216,27.0687,23.2723,39.1877,36.2323,30.0602,32.1467,54.5101,68.5286,77.0997,106.1857,32.2983,53.842,45.5573,112.0989,38.8255,174.4467-6.5265,60.4458-30.8566,113.4609-72.6271,157.4604-66.6446,70.201-148.4725,100.0855-244.9171,87.285-44.9647-5.9678-85.5591-23.3834-122.2731-49.8855-28.1131-20.2933-50.9125-45.8993-72.2262-72.9309-40.8753-51.8412-75.3622-107.8313-107.3716-165.4364-2.0873-3.7563-1.1363-5.8514,1.5805-8.5501,26.7239-26.5458,53.3449-53.1951,79.9828-79.8274,1.6185-1.6182,3.1332-3.3404,4.8493-5.1781-1.191-1.4595-2.0634-2.6598-3.0667-3.7385-17.9542-19.302-38.3368-35.5182-61.2711-48.5671-3.5297-2.0083-5.6874-1.7549-8.5718,1.1736-17.3092,17.5737-34.813,34.9558-52.2857,52.3679-1.458,1.4529-3.1681,2.6528-5.7637,4.7995-.3051-3.4816-.6648-5.7018-.6687-7.9225-.0411-23.5-.076-47.0003.0266-70.4999.0162-3.7225-.877-5.5569-5.0235-6.3422-30.5886-5.7936-61.1915-6.1222-91.9306-1.3489-4.6938.7289-6.1111,2.4663-6.106,7.326.1475,139.333.0773,278.6663.1708,417.9994.0106,15.7258-6.2506,27.9678-18.5647,37.3933-3.7053,2.8362-7.4164,5.6657-11.078,8.5575-1.2185.9624-2.2913,2.1093-3.4307,3.1718.1526.3962.3052.7924.4578,1.1886h168.4453c-2.0487-2.1625-2.9999-3.4208-4.1927-4.3781-3.6386-2.9202-7.3761-5.7169-11.0645-8.5754-11.7102-9.0747-17.6772-21.0487-17.7031-35.8374-.0678-38.6667-.0369-77.3335-.0028-116.0003.0017-1.889.4074-3.7777.6251-5.6666Z"/>
  <path class="cls-1" d="M802.2074,375.2917v-6.8872c0-37.1658-.2076-74.3333.0948-111.4967.1342-16.4944-6.0511-29.3611-19.2332-39.073-3.6207-2.6676-7.1693-5.4471-10.5877-8.3665-.9695-.828-1.3621-2.3314-2.0193-3.525,1.1983-.3925,2.3936-1.1143,3.5956-1.1257,10.1659-.0965,20.333-.0706,30.4998-.068,42.6675.0108,85.3351.0264,128.0026.0403.5.0002,1.0179-.0837,1.4969.017,1.7021.358,3.3909.7791,5.0848,1.1763-1.0515,1.5191-1.8408,3.3476-3.202,4.5015-4.8276,4.0927-9.9561,7.8311-14.7765,11.9318-9.0979,7.7395-14.3625,17.6432-14.4881,29.6104-.3079,29.3279-.2642,58.6601-.2698,87.9906-.0212,111.1618-.0024,222.3236-.0123,333.4854-.0007,7.2398-.0356,7.3498-6.9663,8.515-31.0809,5.2257-62.0528,4.4059-92.9659-1.5783-3.7379-.7236-4.3258-2.4992-4.3113-5.7898.1065-24.1656.064-48.3318.0454-72.4979-.0012-1.5895-.1933-3.1789-.3751-5.9779-2.2396,1.9918-3.7165,3.1774-5.0479,4.5086-17.2063,17.2055-34.5148,34.312-51.4841,51.7487-3.6252,3.725-6.1754,3.8182-10.5498,1.3702-23.8056-13.3218-44.615-30.2793-62.8453-50.4906-.434-.4811-.7483-1.0703-1.5521-2.2403,6.6156-6.5173,13.2744-13.0004,19.8487-19.5679,21.9308-21.9077,43.7727-43.9051,65.8157-65.6993,2.8506-2.8184,2.6976-4.6931.871-7.9888-29.026-52.368-60.1417-103.4126-96.4008-151.1405-20.6763-27.2163-42.1934-53.7268-68.7578-75.6733-39.6287-32.7396-84.7884-53.1227-135.5479-60.8635-65.3251-9.9621-126.4494,2.5648-183.0356,36.2545-45.9166,27.3374-81.7264,64.8985-105.4684,112.7833-44.3585,89.4661-40.7984,178.1738,7.6788,265.0971,20.012,35.8829,43.5923,69.4215,70.3378,100.6535,15.5348,18.1406,32.1406,35.1974,52.0779,48.6586.5045.3407.9006.8419.9169,2.1201-3.891-1.5887-7.8665-2.9986-11.6607-4.7921-104.4786-49.3877-171.2057-129.8691-196.7816-242.7436-17.3094-76.3919-8.8344-150.7763,25.0431-221.6701,30.052-62.8883,75.2706-112.29,135.0125-148.2729,45.899-27.6452,95.6877-43.6309,149.0147-47.907,66.5319-5.3349,129.6602,7.1605,188.967,38.1351,41.784,21.8228,77.0954,51.5588,107.7212,87.2215,35.1894,40.9766,69.6152,82.5503,101.5239,126.1591,1.0264,1.4029,2.1824,2.7111,3.2779,4.0634.4709-.202.9417-.404,1.4126-.6059Z"/>
  <path class="cls-2" d="M469.7814,553.5832c-.2176,1.8889-.6234,3.7776-.6251,5.6666-.0341,38.6668-.065,77.3336.0028,116.0003.0259,14.7886,5.993,26.7627,17.7031,35.8374,3.6884,2.8585,7.4259,5.6552,11.0645,8.5754,1.1928.9572,2.144,2.2156,4.1927,4.3781h-168.4453c-.1526-.3962-.3052-.7924-.4578-1.1886,1.1394-1.0625,2.2121-2.2094,3.4307-3.1718,3.6616-2.8918,7.3727-5.7213,11.078-8.5575,12.3141-9.4256,18.5753-21.6675,18.5647-37.3933-.0935-139.3331-.0233-278.6663-.1708-417.9994-.0052-4.8597,1.4122-6.5971,6.106-7.326,30.7391-4.7734,61.342-4.4447,91.9306,1.3489,4.1465.7853,5.0397,2.6197,5.0235,6.3422-.1026,23.4996-.0677,46.9999-.0266,70.4999.0039,2.2208.3636,4.4409.6687,7.9225,2.5956-2.1467,4.3057-3.3466,5.7637-4.7995,17.4727-17.4121,34.9765-34.7942,52.2857-52.3679,2.8844-2.9285,5.0421-3.1819,8.5718-1.1736,22.9342,13.049,43.3169,29.2652,61.2711,48.5671,1.0033,1.0786,1.8757,2.279,3.0667,3.7385-1.7161,1.8377-3.2308,3.5598-4.8493,5.1781-26.6379,26.6323-53.2589,53.2816-79.9828,79.8274-2.7168,2.6988-3.6677,4.7938-1.5805,8.5501,32.0095,57.6051,66.4963,113.5952,107.3716,165.4364,21.3137,27.0317,44.1132,52.6376,72.2262,72.9309,36.714,26.5021,77.3084,43.9177,122.2731,49.8855,96.4446,12.8005,178.2724-17.084,244.9171-87.285,41.7705-43.9995,66.1006-97.0145,72.6271-157.4604,6.7318-62.3477-6.5272-120.6047-38.8255-174.4467-22.5896-37.657-47.0394-74.039-77.0997-106.1857-12.1189-12.96-26.0661-24.2107-39.1877-36.2323-.6746-.618-1.4103-1.1693-2.1175-1.7516.2099-.3625.4199-.7249.6298-1.0874,11.7162,5.8423,23.7507,11.1281,35.0963,17.6182,67.5549,38.6439,118.096,93.0513,148.5438,164.8656,37.1956,87.7291,38.4431,176.555,3.5863,265.3291-20.4048,51.9673-52.6056,95.8909-94.8101,132.4689-42.7493,37.0501-91.7965,61.7171-146.7058,75.0128-33.136,8.0236-66.8113,10.5598-100.6566,8.3354-79.5145-5.2257-149.2054-34.5701-208.783-87.5686-25.1253-22.3507-46.4671-48.2457-67.5589-74.2512-24.3454-30.0173-47.8859-60.6876-71.7344-91.107-.996-1.2704-1.5714-2.8706-2.3427-4.3171-.6786.4518-1.3572.9035-2.0357,1.3552Z"/>
</svg>